<mxfile modified="2024-04-23T19:17:31.471Z" host="app.diagrams.net" agent="Mozilla/5.0 (Macintosh; Intel Mac OS X 10_15_7) AppleWebKit/605.1.15 (KHTML, like Gecko) Version/17.0 Safari/605.1.15" etag="--R4kO8m-x1f4N8g9Ih5" version="24.2.7" type="github">
  <diagram id="l8hXMBHkgcEJcSW0mbfh" name="Page-1">
    <mxGraphModel dx="1704" dy="1401" grid="1" gridSize="10" guides="1" tooltips="1" connect="1" arrows="1" fold="1" page="1" pageScale="1" pageWidth="1169" pageHeight="827" math="0" shadow="0">
      <root>
        <mxCell id="0" />
        <mxCell id="1" parent="0" />
        <mxCell id="5Y2B0rHB4n81U8_gh0Yu-14" value="" style="shape=parallelogram;perimeter=parallelogramPerimeter;whiteSpace=wrap;html=1;fixedSize=1;size=90.00000000000023;" vertex="1" parent="1">
          <mxGeometry x="640" y="18" width="357" height="182" as="geometry" />
        </mxCell>
        <mxCell id="5Y2B0rHB4n81U8_gh0Yu-13" value="" style="shape=parallelogram;perimeter=parallelogramPerimeter;whiteSpace=wrap;html=1;fixedSize=1;size=94;" vertex="1" parent="1">
          <mxGeometry x="96" y="360" width="900" height="220" as="geometry" />
        </mxCell>
        <mxCell id="5Y2B0rHB4n81U8_gh0Yu-9" value="" style="shape=parallelogram;perimeter=parallelogramPerimeter;whiteSpace=wrap;html=1;fixedSize=1;size=95;" vertex="1" parent="1">
          <mxGeometry x="95" y="594" width="900" height="220" as="geometry" />
        </mxCell>
        <mxCell id="8--HhbSZYtI3ddgJnD71-25" style="edgeStyle=none;rounded=0;orthogonalLoop=1;jettySize=auto;html=1;sourcePerimeterSpacing=5;endArrow=none;endFill=0;targetPerimeterSpacing=5;" parent="1" source="8--HhbSZYtI3ddgJnD71-2" edge="1">
          <mxGeometry relative="1" as="geometry">
            <mxPoint x="284.9999999999998" y="181.49090909090887" as="targetPoint" />
          </mxGeometry>
        </mxCell>
        <mxCell id="8--HhbSZYtI3ddgJnD71-24" style="edgeStyle=none;rounded=0;orthogonalLoop=1;jettySize=auto;html=1;sourcePerimeterSpacing=5;endArrow=none;endFill=0;targetPerimeterSpacing=5;" parent="1" source="8--HhbSZYtI3ddgJnD71-5" edge="1">
          <mxGeometry relative="1" as="geometry">
            <mxPoint x="284.9999999999998" y="171.0333333333333" as="targetPoint" />
          </mxGeometry>
        </mxCell>
        <mxCell id="8--HhbSZYtI3ddgJnD71-21" style="edgeStyle=none;rounded=0;orthogonalLoop=1;jettySize=auto;html=1;sourcePerimeterSpacing=5;endArrow=none;endFill=0;targetPerimeterSpacing=5;" parent="1" target="8--HhbSZYtI3ddgJnD71-11" edge="1">
          <mxGeometry relative="1" as="geometry">
            <mxPoint x="342.9999999999998" y="172.8487804878048" as="sourcePoint" />
          </mxGeometry>
        </mxCell>
        <mxCell id="8--HhbSZYtI3ddgJnD71-23" style="edgeStyle=none;rounded=0;orthogonalLoop=1;jettySize=auto;html=1;sourcePerimeterSpacing=5;endArrow=none;endFill=0;targetPerimeterSpacing=5;" parent="1" source="8--HhbSZYtI3ddgJnD71-16" edge="1">
          <mxGeometry relative="1" as="geometry">
            <mxPoint x="284.9999999999998" y="155.70476190476165" as="targetPoint" />
          </mxGeometry>
        </mxCell>
        <mxCell id="8--HhbSZYtI3ddgJnD71-20" style="rounded=0;orthogonalLoop=1;jettySize=auto;html=1;endArrow=none;endFill=0;sourcePerimeterSpacing=5;targetPerimeterSpacing=5;" parent="1" source="8--HhbSZYtI3ddgJnD71-17" edge="1">
          <mxGeometry relative="1" as="geometry">
            <mxPoint x="305.5942028985505" y="143" as="targetPoint" />
          </mxGeometry>
        </mxCell>
        <mxCell id="8--HhbSZYtI3ddgJnD71-22" style="edgeStyle=none;rounded=0;orthogonalLoop=1;jettySize=auto;html=1;sourcePerimeterSpacing=5;endArrow=none;endFill=0;targetPerimeterSpacing=5;" parent="1" source="8--HhbSZYtI3ddgJnD71-18" edge="1">
          <mxGeometry relative="1" as="geometry">
            <mxPoint x="285.84057971014454" y="143" as="targetPoint" />
          </mxGeometry>
        </mxCell>
        <mxCell id="8--HhbSZYtI3ddgJnD71-2" value="Mobile" style="shape=image;verticalLabelPosition=bottom;verticalAlign=top;imageAspect=0;aspect=fixed;image=data:image/svg+xml,PHN2ZyB4bWxucz0iaHR0cDovL3d3dy53My5vcmcvMjAwMC9zdmciIHZlcnNpb249IjEiIHZpZXdCb3g9IjAgMCA0OCA0OCIgZW5hYmxlLWJhY2tncm91bmQ9Im5ldyAwIDAgNDggNDgiPiYjeGE7ICAgIDxwYXRoIGZpbGw9IiMzNzQ3NEYiIGQ9Ik00LDM5VjdjMC0yLjIsMS44LTQsNC00aDIyYzIuMiwwLDQsMS44LDQsNHYzMmMwLDIuMi0xLjgsNC00LDRIOEM1LjgsNDMsNCw0MS4yLDQsMzl6Ii8+JiN4YTsgICAgPHBhdGggZmlsbD0iI0JCREVGQiIgZD0iTTMwLDZIOEM3LjQsNiw3LDYuNCw3LDd2MjljMCwwLjYsMC40LDEsMSwxaDIyYzAuNiwwLDEtMC40LDEtMVY3QzMxLDYuNCwzMC42LDYsMzAsNnoiLz4mI3hhOyAgICA8cmVjdCB4PSIxNSIgeT0iMzkiIGZpbGw9IiM3ODkwOUMiIHdpZHRoPSI2IiBoZWlnaHQ9IjIiLz4mI3hhOyAgICA8cGF0aCBmaWxsPSIjRTM4OTM5IiBkPSJNMjQsNDFWMTdjMC0yLjIsMS44LTQsNC00aDEyYzIuMiwwLDQsMS44LDQsNHYyNGMwLDIuMi0xLjgsNC00LDRIMjhDMjUuOCw0NSwyNCw0My4yLDI0LDQxeiIvPiYjeGE7ICAgIDxwYXRoIGZpbGw9IiNGRkYzRTAiIGQ9Ik00MCwxNkgyOGMtMC42LDAtMSwwLjQtMSwxdjIyYzAsMC42LDAuNCwxLDEsMWgxMmMwLjYsMCwxLTAuNCwxLTFWMTdDNDEsMTYuNCw0MC42LDE2LDQwLDE2eiIvPiYjeGE7ICAgIDxjaXJjbGUgZmlsbD0iI0E2NjQyQSIgY3g9IjM0IiBjeT0iNDIuNSIgcj0iMS41Ii8+JiN4YTs8L3N2Zz4=;labelBackgroundColor=#ffffff;" parent="1" vertex="1">
          <mxGeometry x="70" y="220" width="48" height="48" as="geometry" />
        </mxCell>
        <mxCell id="8--HhbSZYtI3ddgJnD71-5" value="Home" style="shape=image;verticalLabelPosition=bottom;verticalAlign=top;imageAspect=0;aspect=fixed;image=data:image/svg+xml,PHN2ZyB4bWxucz0iaHR0cDovL3d3dy53My5vcmcvMjAwMC9zdmciIHZlcnNpb249IjEiIHZpZXdCb3g9IjAgMCA0OCA0OCIgZW5hYmxlLWJhY2tncm91bmQ9Im5ldyAwIDAgNDggNDgiPiYjeGE7ICAgIDxwb2x5Z29uIGZpbGw9IiNFOEVBRjYiIHBvaW50cz0iNDIsMzkgNiwzOSA2LDIzIDI0LDYgNDIsMjMiLz4mI3hhOyAgICA8ZyBmaWxsPSIjQzVDQUU5Ij4mI3hhOyAgICAgICAgPHBvbHlnb24gcG9pbnRzPSIzOSwyMSAzNCwxNiAzNCw5IDM5LDkiLz4mI3hhOyAgICAgICAgPHJlY3QgeD0iNiIgeT0iMzkiIHdpZHRoPSIzNiIgaGVpZ2h0PSI1Ii8+JiN4YTsgICAgPC9nPiYjeGE7ICAgIDxwb2x5Z29uIGZpbGw9IiNCNzFDMUMiIHBvaW50cz0iMjQsNC4zIDQsMjIuOSA2LDI1LjEgMjQsOC40IDQyLDI1LjEgNDQsMjIuOSIvPiYjeGE7ICAgIDxyZWN0IHg9IjE4IiB5PSIyOCIgZmlsbD0iI0Q4NDMxNSIgd2lkdGg9IjEyIiBoZWlnaHQ9IjE2Ii8+JiN4YTsgICAgPHJlY3QgeD0iMjEiIHk9IjE3IiBmaWxsPSIjMDE1NzlCIiB3aWR0aD0iNiIgaGVpZ2h0PSI2Ii8+JiN4YTsgICAgPHBhdGggZmlsbD0iI0ZGOEE2NSIgZD0iTTI3LjUsMzUuNWMtMC4zLDAtMC41LDAuMi0wLjUsMC41djJjMCwwLjMsMC4yLDAuNSwwLjUsMC41UzI4LDM4LjMsMjgsMzh2LTJDMjgsMzUuNywyNy44LDM1LjUsMjcuNSwzNS41eiIvPiYjeGE7PC9zdmc+;labelBackgroundColor=#ffffff;" parent="1" vertex="1">
          <mxGeometry x="50" y="140" width="48" height="48" as="geometry" />
        </mxCell>
        <mxCell id="8--HhbSZYtI3ddgJnD71-7" value="Alarm" style="shape=image;verticalLabelPosition=bottom;verticalAlign=top;imageAspect=0;aspect=fixed;image=data:image/svg+xml,PHN2ZyB4bWxucz0iaHR0cDovL3d3dy53My5vcmcvMjAwMC9zdmciIHZlcnNpb249IjEiIHZpZXdCb3g9IjAgMCA0OCA0OCIgZW5hYmxlLWJhY2tncm91bmQ9Im5ldyAwIDAgNDggNDgiPiYjeGE7ICAgIDxnIGZpbGw9IiMzNzQ3NEYiPiYjeGE7ICAgICAgICA8cGF0aCBkPSJNMzguNSw0NC42bC00LTRsMi4xLTIuMWw0LDRjMC42LDAuNiwwLjYsMS41LDAsMi4xbDAsMEM0MC4xLDQ1LjEsMzkuMSw0NS4xLDM4LjUsNDQuNnoiLz4mI3hhOyAgICAgICAgPHBhdGggZD0iTTkuNSw0NC42bDQtNGwtMi4xLTIuMWwtNCw0Yy0wLjYsMC42LTAuNiwxLjUsMCwyLjFsMCwwQzcuOSw0NS4xLDguOSw0NS4xLDkuNSw0NC42eiIvPiYjeGE7ICAgIDwvZz4mI3hhOyAgICA8Y2lyY2xlIGZpbGw9IiNDNjI4MjgiIGN4PSIyNCIgY3k9IjI0IiByPSIyMCIvPiYjeGE7ICAgIDxjaXJjbGUgZmlsbD0iI2VlZSIgY3g9IjI0IiBjeT0iMjQiIHI9IjE2Ii8+JiN4YTsgICAgPHJlY3QgeD0iMTkiIHk9IjIyLjEiIHRyYW5zZm9ybT0ibWF0cml4KC0uNzA3IC0uNzA3IC43MDcgLS43MDcgMTIuOTA0IDYyLjUzNykiIGZpbGw9IiNFNTM5MzUiIHdpZHRoPSIuOCIgaGVpZ2h0PSIxMyIvPiYjeGE7ICAgIDxyZWN0IHg9IjIzIiB5PSIxMSIgd2lkdGg9IjIiIGhlaWdodD0iMTMiLz4mI3hhOyAgICA8cmVjdCB4PSIyNi4xIiB5PSIyMi43IiB0cmFuc2Zvcm09Im1hdHJpeCgtLjcwNyAuNzA3IC0uNzA3IC0uNzA3IDY1Ljc4NyAyNy4yNSkiIHdpZHRoPSIyLjMiIGhlaWdodD0iOS4yIi8+JiN4YTsgICAgPGNpcmNsZSBjeD0iMjQiIGN5PSIyNCIgcj0iMiIvPiYjeGE7ICAgIDxjaXJjbGUgZmlsbD0iI0M2MjgyOCIgY3g9IjI0IiBjeT0iMjQiIHI9IjEiLz4mI3hhOyAgICA8cmVjdCB4PSIyMiIgeT0iMSIgZmlsbD0iIzM3NDc0RiIgd2lkdGg9IjQiIGhlaWdodD0iMyIvPiYjeGE7ICAgIDxnIGZpbGw9IiMzNzQ3NEYiPiYjeGE7ICAgICAgICA8cGF0aCBkPSJNNDQuNCwxNi4yYzIuNS0zLjUsMi4xLTguNC0xLTExLjVjLTMuMS0zLjEtOC0zLjUtMTEuNS0xTDQ0LjQsMTYuMnoiLz4mI3hhOyAgICAgICAgPHBhdGggZD0iTTMuNiwxNi4yYy0yLjUtMy41LTIuMS04LjQsMS0xMS41YzMuMS0zLjEsOC0zLjUsMTEuNS0xTDMuNiwxNi4yeiIvPiYjeGE7ICAgIDwvZz4mI3hhOzwvc3ZnPg==;labelBackgroundColor=#ffffff;" parent="1" vertex="1">
          <mxGeometry x="470" y="40" width="48" height="48" as="geometry" />
        </mxCell>
        <mxCell id="8--HhbSZYtI3ddgJnD71-11" value="Internet" style="shape=image;verticalLabelPosition=bottom;verticalAlign=top;imageAspect=0;aspect=fixed;image=data:image/svg+xml,PHN2ZyB4bWxucz0iaHR0cDovL3d3dy53My5vcmcvMjAwMC9zdmciIHZlcnNpb249IjEiIHZpZXdCb3g9IjAgMCA0OCA0OCIgZW5hYmxlLWJhY2tncm91bmQ9Im5ldyAwIDAgNDggNDgiPiYjeGE7ICAgIDxwYXRoIGZpbGw9IiM3Q0IzNDIiIGQ9Ik0yNCw0QzEzLDQsNCwxMyw0LDI0czksMjAsMjAsMjBzMjAtOSwyMC0yMFMzNSw0LDI0LDR6Ii8+JiN4YTsgICAgPHBhdGggZmlsbD0iIzAyNzdCRCIgZD0iTTQ1LDI0YzAsMTEuNy05LjUsMjEtMjEsMjFTMywzNS43LDMsMjRTMTIuMywzLDI0LDNTNDUsMTIuMyw0NSwyNHogTTIzLjgsMzMuN2MwLTAuNC0wLjItMC42LTAuNi0wLjggYy0xLjMtMC40LTIuNS0wLjQtMy42LTEuNWMtMC4yLTAuNC0wLjItMC44LTAuNC0xLjNjLTAuNC0wLjQtMS41LTAuNi0yLjEtMC44Yy0wLjgsMC0xLjcsMC0yLjcsMGMtMC40LDAtMS4xLDAtMS41LDAgYy0wLjYtMC4yLTEuMS0xLjEtMS41LTEuN2MwLTAuMiwwLTAuNi0wLjQtMC42Yy0wLjQtMC4yLTAuOCwwLjItMS4zLDBjLTAuMi0wLjItMC4yLTAuNC0wLjItMC42YzAtMC42LDAuNC0xLjMsMC44LTEuNyBjMC42LTAuNCwxLjMsMC4yLDEuOSwwLjJjMC4yLDAsMC4yLDAsMC40LDAuMmMwLjYsMC4yLDAuOCwxLDAuOCwxLjdjMCwwLjIsMCwwLjQsMCwwLjRjMCwwLjIsMC4yLDAuMiwwLjQsMC4yIGMwLjItMS4xLDAuMi0yLjEsMC40LTMuMmMwLTEuMywxLjMtMi41LDIuMy0yLjljMC40LTAuMiwwLjYsMC4yLDEuMSwwYzEuMy0wLjQsNC40LTEuNywzLjgtMy40Yy0wLjQtMS41LTEuNy0yLjktMy40LTIuNyBjLTAuNCwwLjItMC42LDAuNC0xLDAuNmMtMC42LDAuNC0xLjksMS43LTIuNSwxLjdjLTEuMS0wLjItMS4xLTEuNy0wLjgtMi4zYzAuMi0wLjgsMi4xLTMuNiwzLjQtMy4xYzAuMiwwLjIsMC42LDAuNiwwLjgsMC44IGMwLjQsMC4yLDEuMSwwLjIsMS43LDAuMmMwLjIsMCwwLjQsMCwwLjYtMC4yYzAuMi0wLjIsMC4yLTAuMiwwLjItMC40YzAtMC42LTAuNi0xLjMtMS0xLjdjLTAuNC0wLjQtMS4xLTAuOC0xLjctMS4xIGMtMi4xLTAuNi01LjUsMC4yLTcuMSwxLjdzLTIuOSw0LTMuOCw2LjFjLTAuNCwxLjMtMC44LDIuOS0xLDQuNGMtMC4yLDEtMC40LDEuOSwwLjIsMi45YzAuNiwxLjMsMS45LDIuNSwzLjIsMy40IGMwLjgsMC42LDIuNSwwLjYsMy40LDEuN2MwLjYsMC44LDAuNCwxLjksMC40LDIuOWMwLDEuMywwLjgsMi4zLDEuMywzLjRjMC4yLDAuNiwwLjQsMS41LDAuNiwyLjFjMCwwLjIsMC4yLDEuNSwwLjIsMS43IGMxLjMsMC42LDIuMywxLjMsMy44LDEuN2MwLjIsMCwxLTEuMywxLTEuNWMwLjYtMC42LDEuMS0xLjUsMS43LTEuOWMwLjQtMC4yLDAuOC0wLjQsMS4zLTAuOGMwLjQtMC40LDAuNi0xLjMsMC44LTEuOSBDMjMuOCwzNS4xLDI0LDM0LjMsMjMuOCwzMy43eiBNMjQuMiwxNC4zYzAuMiwwLDAuNC0wLjIsMC44LTAuNGMwLjYtMC40LDEuMy0xLjEsMS45LTEuNWMwLjYtMC40LDEuMy0xLjEsMS43LTEuNSBjMC42LTAuNCwxLjEtMS4zLDEuMy0xLjljMC4yLTAuNCwwLjgtMS4zLDAuNi0xLjljLTAuMi0wLjQtMS4zLTAuNi0xLjctMC44Yy0xLjctMC40LTMuMS0wLjYtNC44LTAuNmMtMC42LDAtMS41LDAuMi0xLjcsMC44IGMtMC4yLDEuMSwwLjYsMC44LDEuNSwxLjFjMCwwLDAuMiwxLjcsMC4yLDEuOWMwLjIsMS0wLjQsMS43LTAuNCwyLjdjMCwwLjYsMCwxLjcsMC40LDIuMUwyNC4yLDE0LjN6IE00MS44LDI5IGMwLjItMC40LDAuMi0xLjEsMC40LTEuNWMwLjItMSwwLjItMi4xLDAuMi0zLjFjMC0yLjEtMC4yLTQuMi0wLjgtNi4xYy0wLjQtMC42LTAuNi0xLjMtMC44LTEuOWMtMC40LTEuMS0xLTIuMS0xLjktMi45IGMtMC44LTEuMS0xLjktNC0zLjgtMy4xYy0wLjYsMC4yLTEsMS0xLjUsMS41Yy0wLjQsMC42LTAuOCwxLjMtMS4zLDEuOWMtMC4yLDAuMi0wLjQsMC42LTAuMiwwLjhjMCwwLjIsMC4yLDAuMiwwLjQsMC4yIGMwLjQsMC4yLDAuNiwwLjIsMSwwLjRjMC4yLDAsMC40LDAuMiwwLjIsMC40YzAsMCwwLDAuMi0wLjIsMC4yYy0xLDEuMS0yLjEsMS45LTMuMSwyLjljLTAuMiwwLjItMC40LDAuNi0wLjQsMC44IGMwLDAuMiwwLjIsMC4yLDAuMiwwLjRjMCwwLjItMC4yLDAuMi0wLjQsMC40Yy0wLjQsMC4yLTAuOCwwLjQtMS4xLDAuNmMtMC4yLDAuNCwwLDEuMS0wLjIsMS41Yy0wLjIsMS4xLTAuOCwxLjktMS4zLDIuOSBjLTAuNCwwLjYtMC42LDEuMy0xLDEuOWMwLDAuOC0wLjIsMS41LDAuMiwyLjFjMSwxLjUsMi45LDAuNiw0LjQsMS4zYzAuNCwwLjIsMC44LDAuMiwxLjEsMC42YzAuNiwwLjYsMC42LDEuNywwLjgsMi4zIGMwLjIsMC44LDAuNCwxLjcsMC44LDIuNWMwLjIsMSwwLjYsMi4xLDAuOCwyLjljMS45LTEuNSwzLjYtMy4xLDQuOC01LjJDNDAuNiwzMi40LDQxLjIsMzAuNyw0MS44LDI5eiIvPiYjeGE7PC9zdmc+;labelBackgroundColor=#ffffff;" parent="1" vertex="1">
          <mxGeometry x="390" y="140" width="48" height="48" as="geometry" />
        </mxCell>
        <mxCell id="8--HhbSZYtI3ddgJnD71-16" value="User" style="shape=image;verticalLabelPosition=bottom;verticalAlign=top;imageAspect=0;aspect=fixed;image=data:image/svg+xml,PHN2ZyB4bWxucz0iaHR0cDovL3d3dy53My5vcmcvMjAwMC9zdmciIHZlcnNpb249IjEiIHZpZXdCb3g9IjAgMCA0OCA0OCIgZW5hYmxlLWJhY2tncm91bmQ9Im5ldyAwIDAgNDggNDgiPiYjeGE7ICAgIDxwb2x5Z29uIGZpbGw9IiNGRjk4MDAiIHBvaW50cz0iMjQsMzcgMTksMzEgMTksMjUgMjksMjUgMjksMzEiLz4mI3hhOyAgICA8ZyBmaWxsPSIjRkZBNzI2Ij4mI3hhOyAgICAgICAgPGNpcmNsZSBjeD0iMzMiIGN5PSIxOSIgcj0iMiIvPiYjeGE7ICAgICAgICA8Y2lyY2xlIGN4PSIxNSIgY3k9IjE5IiByPSIyIi8+JiN4YTsgICAgPC9nPiYjeGE7ICAgIDxwYXRoIGZpbGw9IiNGRkI3NEQiIGQ9Ik0zMywxM2MwLTcuNi0xOC01LTE4LDBjMCwxLjEsMCw1LjksMCw3YzAsNSw0LDksOSw5czktNCw5LTlDMzMsMTguOSwzMywxNC4xLDMzLDEzeiIvPiYjeGE7ICAgIDxwYXRoIGZpbGw9IiM0MjQyNDIiIGQ9Ik0yNCw0Yy02LjEsMC0xMCw0LjktMTAsMTFjMCwwLjgsMCwyLjMsMCwyLjNsMiwxLjd2LTVsMTItNGw0LDR2NWwyLTEuN2MwLDAsMC0xLjUsMC0yLjNjMC00LTEtOC02LTlsLTEtMiBIMjR6Ii8+JiN4YTsgICAgPGcgZmlsbD0iIzc4NDcxOSI+JiN4YTsgICAgICAgIDxjaXJjbGUgY3g9IjI4IiBjeT0iMTkiIHI9IjEiLz4mI3hhOyAgICAgICAgPGNpcmNsZSBjeD0iMjAiIGN5PSIxOSIgcj0iMSIvPiYjeGE7ICAgIDwvZz4mI3hhOyAgICA8cG9seWdvbiBmaWxsPSIjZmZmIiBwb2ludHM9IjI0LDQzIDE5LDMxIDI0LDMyIDI5LDMxIi8+JiN4YTsgICAgPHBvbHlnb24gZmlsbD0iI0QzMkYyRiIgcG9pbnRzPSIyMywzNSAyMi4zLDM5LjUgMjQsNDMuNSAyNS43LDM5LjUgMjUsMzUgMjYsMzQgMjQsMzIgMjIsMzQiLz4mI3hhOyAgICA8cGF0aCBmaWxsPSIjNTQ2RTdBIiBkPSJNMjksMzFMMjksMzFsLTUsMTJsLTUtMTJjMCwwLTExLDItMTEsMTNoMzJDNDAsMzMsMjksMzEsMjksMzF6Ii8+JiN4YTs8L3N2Zz4=;labelBackgroundColor=#ffffff;" parent="1" vertex="1">
          <mxGeometry x="80" y="30" width="48" height="48" as="geometry" />
        </mxCell>
        <mxCell id="8--HhbSZYtI3ddgJnD71-17" value="User" style="shape=image;verticalLabelPosition=bottom;verticalAlign=top;imageAspect=0;aspect=fixed;image=data:image/svg+xml,PHN2ZyB4bWxucz0iaHR0cDovL3d3dy53My5vcmcvMjAwMC9zdmciIHZlcnNpb249IjEiIHZpZXdCb3g9IjAgMCA0OCA0OCIgZW5hYmxlLWJhY2tncm91bmQ9Im5ldyAwIDAgNDggNDgiPiYjeGE7ICAgIDxwb2x5Z29uIGZpbGw9IiNGRjk4MDAiIHBvaW50cz0iMjQsMzcgMTksMzEgMTksMjUgMjksMjUgMjksMzEiLz4mI3hhOyAgICA8ZyBmaWxsPSIjRkZBNzI2Ij4mI3hhOyAgICAgICAgPGNpcmNsZSBjeD0iMzMiIGN5PSIxOSIgcj0iMiIvPiYjeGE7ICAgICAgICA8Y2lyY2xlIGN4PSIxNSIgY3k9IjE5IiByPSIyIi8+JiN4YTsgICAgPC9nPiYjeGE7ICAgIDxwYXRoIGZpbGw9IiNGRkI3NEQiIGQ9Ik0zMywxM2MwLTcuNi0xOC01LTE4LDBjMCwxLjEsMCw1LjksMCw3YzAsNSw0LDksOSw5czktNCw5LTlDMzMsMTguOSwzMywxNC4xLDMzLDEzeiIvPiYjeGE7ICAgIDxwYXRoIGZpbGw9IiM0MjQyNDIiIGQ9Ik0yNCw0Yy02LjEsMC0xMCw0LjktMTAsMTFjMCwwLjgsMCwyLjMsMCwyLjNsMiwxLjd2LTVsMTItNGw0LDR2NWwyLTEuN2MwLDAsMC0xLjUsMC0yLjNjMC00LTEtOC02LTlsLTEtMiBIMjR6Ii8+JiN4YTsgICAgPGcgZmlsbD0iIzc4NDcxOSI+JiN4YTsgICAgICAgIDxjaXJjbGUgY3g9IjI4IiBjeT0iMTkiIHI9IjEiLz4mI3hhOyAgICAgICAgPGNpcmNsZSBjeD0iMjAiIGN5PSIxOSIgcj0iMSIvPiYjeGE7ICAgIDwvZz4mI3hhOyAgICA8cG9seWdvbiBmaWxsPSIjZmZmIiBwb2ludHM9IjI0LDQzIDE5LDMxIDI0LDMyIDI5LDMxIi8+JiN4YTsgICAgPHBvbHlnb24gZmlsbD0iI0QzMkYyRiIgcG9pbnRzPSIyMywzNSAyMi4zLDM5LjUgMjQsNDMuNSAyNS43LDM5LjUgMjUsMzUgMjYsMzQgMjQsMzIgMjIsMzQiLz4mI3hhOyAgICA8cGF0aCBmaWxsPSIjNTQ2RTdBIiBkPSJNMjksMzFMMjksMzFsLTUsMTJsLTUtMTJjMCwwLTExLDItMTEsMTNoMzJDNDAsMzMsMjksMzEsMjksMzF6Ii8+JiN4YTs8L3N2Zz4=;labelBackgroundColor=#ffffff;" parent="1" vertex="1">
          <mxGeometry x="250" y="10" width="48" height="48" as="geometry" />
        </mxCell>
        <mxCell id="8--HhbSZYtI3ddgJnD71-18" value="User" style="shape=image;verticalLabelPosition=bottom;verticalAlign=top;imageAspect=0;aspect=fixed;image=data:image/svg+xml,PHN2ZyB4bWxucz0iaHR0cDovL3d3dy53My5vcmcvMjAwMC9zdmciIHZlcnNpb249IjEiIHZpZXdCb3g9IjAgMCA0OCA0OCIgZW5hYmxlLWJhY2tncm91bmQ9Im5ldyAwIDAgNDggNDgiPiYjeGE7ICAgIDxwb2x5Z29uIGZpbGw9IiNGRjk4MDAiIHBvaW50cz0iMjQsMzcgMTksMzEgMTksMjUgMjksMjUgMjksMzEiLz4mI3hhOyAgICA8ZyBmaWxsPSIjRkZBNzI2Ij4mI3hhOyAgICAgICAgPGNpcmNsZSBjeD0iMzMiIGN5PSIxOSIgcj0iMiIvPiYjeGE7ICAgICAgICA8Y2lyY2xlIGN4PSIxNSIgY3k9IjE5IiByPSIyIi8+JiN4YTsgICAgPC9nPiYjeGE7ICAgIDxwYXRoIGZpbGw9IiNGRkI3NEQiIGQ9Ik0zMywxM2MwLTcuNi0xOC01LTE4LDBjMCwxLjEsMCw1LjksMCw3YzAsNSw0LDksOSw5czktNCw5LTlDMzMsMTguOSwzMywxNC4xLDMzLDEzeiIvPiYjeGE7ICAgIDxwYXRoIGZpbGw9IiM0MjQyNDIiIGQ9Ik0yNCw0Yy02LjEsMC0xMCw0LjktMTAsMTFjMCwwLjgsMCwyLjMsMCwyLjNsMiwxLjd2LTVsMTItNGw0LDR2NWwyLTEuN2MwLDAsMC0xLjUsMC0yLjNjMC00LTEtOC02LTlsLTEtMiBIMjR6Ii8+JiN4YTsgICAgPGcgZmlsbD0iIzc4NDcxOSI+JiN4YTsgICAgICAgIDxjaXJjbGUgY3g9IjI4IiBjeT0iMTkiIHI9IjEiLz4mI3hhOyAgICAgICAgPGNpcmNsZSBjeD0iMjAiIGN5PSIxOSIgcj0iMSIvPiYjeGE7ICAgIDwvZz4mI3hhOyAgICA8cG9seWdvbiBmaWxsPSIjZmZmIiBwb2ludHM9IjI0LDQzIDE5LDMxIDI0LDMyIDI5LDMxIi8+JiN4YTsgICAgPHBvbHlnb24gZmlsbD0iI0QzMkYyRiIgcG9pbnRzPSIyMywzNSAyMi4zLDM5LjUgMjQsNDMuNSAyNS43LDM5LjUgMjUsMzUgMjYsMzQgMjQsMzIgMjIsMzQiLz4mI3hhOyAgICA8cGF0aCBmaWxsPSIjNTQ2RTdBIiBkPSJNMjksMzFMMjksMzFsLTUsMTJsLTUtMTJjMCwwLTExLDItMTEsMTNoMzJDNDAsMzMsMjksMzEsMjksMzF6Ii8+JiN4YTs8L3N2Zz4=;labelBackgroundColor=#ffffff;" parent="1" vertex="1">
          <mxGeometry x="156" y="10" width="48" height="48" as="geometry" />
        </mxCell>
        <mxCell id="5Y2B0rHB4n81U8_gh0Yu-15" value="" style="endArrow=none;dashed=1;html=1;dashPattern=1 3;strokeWidth=2;rounded=0;entryX=0.935;entryY=0.989;entryDx=0;entryDy=0;entryPerimeter=0;exitX=0.934;exitY=0.997;exitDx=0;exitDy=0;exitPerimeter=0;" edge="1" parent="1">
          <mxGeometry width="50" height="50" relative="1" as="geometry">
            <mxPoint x="899.9999999999999" y="814.0000000000001" as="sourcePoint" />
            <mxPoint x="901.9" y="578.2399999999999" as="targetPoint" />
            <Array as="points">
              <mxPoint x="902.4" y="690.66" />
            </Array>
          </mxGeometry>
        </mxCell>
        <mxCell id="5Y2B0rHB4n81U8_gh0Yu-16" value="" style="endArrow=none;dashed=1;html=1;dashPattern=1 3;strokeWidth=2;rounded=0;entryX=0.935;entryY=0.989;entryDx=0;entryDy=0;entryPerimeter=0;exitX=0.934;exitY=0.997;exitDx=0;exitDy=0;exitPerimeter=0;" edge="1" parent="1">
          <mxGeometry width="50" height="50" relative="1" as="geometry">
            <mxPoint x="993" y="594" as="sourcePoint" />
            <mxPoint x="995" y="359" as="targetPoint" />
          </mxGeometry>
        </mxCell>
        <mxCell id="5Y2B0rHB4n81U8_gh0Yu-17" value="" style="endArrow=none;dashed=1;html=1;dashPattern=1 3;strokeWidth=2;rounded=0;entryX=0.935;entryY=0.989;entryDx=0;entryDy=0;entryPerimeter=0;exitX=0.934;exitY=0.997;exitDx=0;exitDy=0;exitPerimeter=0;" edge="1" parent="1">
          <mxGeometry width="50" height="50" relative="1" as="geometry">
            <mxPoint x="96" y="814" as="sourcePoint" />
            <mxPoint x="98" y="579" as="targetPoint" />
          </mxGeometry>
        </mxCell>
        <mxCell id="5Y2B0rHB4n81U8_gh0Yu-18" value="" style="endArrow=none;dashed=1;html=1;dashPattern=1 3;strokeWidth=2;rounded=0;entryX=0.935;entryY=0.989;entryDx=0;entryDy=0;entryPerimeter=0;exitX=0.934;exitY=0.997;exitDx=0;exitDy=0;exitPerimeter=0;" edge="1" parent="1">
          <mxGeometry width="50" height="50" relative="1" as="geometry">
            <mxPoint x="214.8320000000001" y="555.856" as="sourcePoint" />
            <mxPoint x="192" y="359" as="targetPoint" />
          </mxGeometry>
        </mxCell>
        <mxCell id="5Y2B0rHB4n81U8_gh0Yu-19" value="" style="endArrow=none;dashed=1;html=1;dashPattern=1 3;strokeWidth=2;rounded=0;entryX=1;entryY=0;entryDx=0;entryDy=0;exitX=0.934;exitY=0.997;exitDx=0;exitDy=0;exitPerimeter=0;" edge="1" parent="1" target="5Y2B0rHB4n81U8_gh0Yu-14">
          <mxGeometry width="50" height="50" relative="1" as="geometry">
            <mxPoint x="993" y="361.5" as="sourcePoint" />
            <mxPoint x="995" y="126.5" as="targetPoint" />
          </mxGeometry>
        </mxCell>
        <mxCell id="5Y2B0rHB4n81U8_gh0Yu-20" value="" style="endArrow=none;dashed=1;html=1;dashPattern=1 3;strokeWidth=2;rounded=0;exitX=0.934;exitY=0.997;exitDx=0;exitDy=0;exitPerimeter=0;" edge="1" parent="1">
          <mxGeometry width="50" height="50" relative="1" as="geometry">
            <mxPoint x="900" y="580" as="sourcePoint" />
            <mxPoint x="904" y="200" as="targetPoint" />
          </mxGeometry>
        </mxCell>
        <mxCell id="5Y2B0rHB4n81U8_gh0Yu-21" value="" style="endArrow=none;dashed=1;html=1;dashPattern=1 3;strokeWidth=2;rounded=0;exitX=0.934;exitY=0.997;exitDx=0;exitDy=0;exitPerimeter=0;" edge="1" parent="1">
          <mxGeometry width="50" height="50" relative="1" as="geometry">
            <mxPoint x="640" y="577" as="sourcePoint" />
            <mxPoint x="644" y="197" as="targetPoint" />
          </mxGeometry>
        </mxCell>
        <mxCell id="5Y2B0rHB4n81U8_gh0Yu-22" value="" style="endArrow=none;dashed=1;html=1;dashPattern=1 3;strokeWidth=2;rounded=0;entryX=1;entryY=0;entryDx=0;entryDy=0;exitX=0.934;exitY=0.997;exitDx=0;exitDy=0;exitPerimeter=0;" edge="1" parent="1">
          <mxGeometry width="50" height="50" relative="1" as="geometry">
            <mxPoint x="730" y="360" as="sourcePoint" />
            <mxPoint x="734" y="16.5" as="targetPoint" />
          </mxGeometry>
        </mxCell>
        <mxCell id="5Y2B0rHB4n81U8_gh0Yu-27" value="" style="endArrow=none;dashed=1;html=1;dashPattern=1 3;strokeWidth=2;rounded=0;entryX=0.935;entryY=0.989;entryDx=0;entryDy=0;entryPerimeter=0;exitX=0.934;exitY=0.997;exitDx=0;exitDy=0;exitPerimeter=0;" edge="1" parent="1">
          <mxGeometry width="50" height="50" relative="1" as="geometry">
            <mxPoint x="190" y="594" as="sourcePoint" />
            <mxPoint x="214.87999999999988" y="555.472" as="targetPoint" />
          </mxGeometry>
        </mxCell>
        <mxCell id="5Y2B0rHB4n81U8_gh0Yu-37" value="" style="group" vertex="1" connectable="0" parent="1">
          <mxGeometry x="781" y="30" width="60" height="58" as="geometry" />
        </mxCell>
        <mxCell id="5Y2B0rHB4n81U8_gh0Yu-25" value="" style="shape=image;verticalLabelPosition=bottom;verticalAlign=top;imageAspect=0;aspect=fixed;image=data:image/svg+xml,PHN2ZyB4bWxucz0iaHR0cDovL3d3dy53My5vcmcvMjAwMC9zdmciIHZlcnNpb249IjEiIHZpZXdCb3g9IjAgMCA0OCA0OCIgZW5hYmxlLWJhY2tncm91bmQ9Im5ldyAwIDAgNDggNDgiPiYjeGE7ICAgIDxnIGZpbGw9IiNGRkE3MjYiPiYjeGE7ICAgICAgICA8Y2lyY2xlIGN4PSIxMCIgY3k9IjI2IiByPSI0Ii8+JiN4YTsgICAgICAgIDxjaXJjbGUgY3g9IjM4IiBjeT0iMjYiIHI9IjQiLz4mI3hhOyAgICA8L2c+JiN4YTsgICAgPHBhdGggZmlsbD0iI0ZGQjc0RCIgZD0iTTM5LDE5YzAtMTIuNy0zMC04LjMtMzAsMGMwLDEuOCwwLDguMiwwLDEwYzAsOC4zLDYuNywxNSwxNSwxNXMxNS02LjcsMTUtMTVDMzksMjcuMiwzOSwyMC44LDM5LDE5eiIvPiYjeGE7ICAgIDxwYXRoIGZpbGw9IiNGRjU3MjIiIGQ9Ik0yNCwzQzE0LjYsMyw3LDEwLjYsNywyMGMwLDEuMiwwLDMuNCwwLDMuNEw5LDI1di0zbDIxLTkuOGw5LDkuOHYzbDItMS42YzAsMCwwLTIuMSwwLTMuNCBDNDEsMTIsMzUuMywzLDI0LDN6Ii8+JiN4YTsgICAgPGcgZmlsbD0iIzc4NDcxOSI+JiN4YTsgICAgICAgIDxjaXJjbGUgY3g9IjMxIiBjeT0iMjYiIHI9IjIiLz4mI3hhOyAgICAgICAgPGNpcmNsZSBjeD0iMTciIGN5PSIyNiIgcj0iMiIvPiYjeGE7ICAgIDwvZz4mI3hhOyAgICA8cGF0aCBmaWxsPSIjNzU3NTc1IiBkPSJNNDMsMjRjLTAuNiwwLTEsMC40LTEsMXYtN2MwLTguOC03LjItMTYtMTYtMTZoLTdjLTAuNiwwLTEsMC40LTEsMXMwLjQsMSwxLDFoN2M3LjcsMCwxNCw2LjMsMTQsMTR2MTAgYzAsMC42LDAuNCwxLDEsMXMxLTAuNCwxLTF2MmMwLDMuOS0zLjEsNy03LDdIMjRjLTAuNiwwLTEsMC40LTEsMXMwLjQsMSwxLDFoMTFjNSwwLDktNCw5LTl2LTVDNDQsMjQuNCw0My42LDI0LDQzLDI0eiIvPiYjeGE7ICAgIDxnIGZpbGw9IiMzNzQ3NEYiPiYjeGE7ICAgICAgICA8cGF0aCBkPSJNNDMsMjJoLTFjLTEuMSwwLTIsMC45LTIsMnY0YzAsMS4xLDAuOSwyLDIsMmgxYzEuMSwwLDItMC45LDItMnYtNEM0NSwyMi45LDQ0LjEsMjIsNDMsMjJ6Ii8+JiN4YTsgICAgICAgIDxjaXJjbGUgY3g9IjI0IiBjeT0iMzgiIHI9IjIiLz4mI3hhOyAgICA8L2c+JiN4YTs8L3N2Zz4=;" vertex="1" parent="5Y2B0rHB4n81U8_gh0Yu-37">
          <mxGeometry x="9" width="38" height="38" as="geometry" />
        </mxCell>
        <mxCell id="5Y2B0rHB4n81U8_gh0Yu-36" value="Fluglotse" style="text;strokeColor=none;align=center;fillColor=none;html=1;verticalAlign=middle;whiteSpace=wrap;rounded=0;" vertex="1" parent="5Y2B0rHB4n81U8_gh0Yu-37">
          <mxGeometry y="28" width="60" height="30" as="geometry" />
        </mxCell>
        <mxCell id="5Y2B0rHB4n81U8_gh0Yu-38" value="" style="group" vertex="1" connectable="0" parent="1">
          <mxGeometry x="832" y="28" width="60" height="60" as="geometry" />
        </mxCell>
        <object label="" Fluglotse="" id="5Y2B0rHB4n81U8_gh0Yu-24">
          <mxCell style="shape=image;verticalLabelPosition=bottom;verticalAlign=top;imageAspect=0;aspect=fixed;image=data:image/svg+xml,PHN2ZyB4bWxucz0iaHR0cDovL3d3dy53My5vcmcvMjAwMC9zdmciIHZlcnNpb249IjEiIHZpZXdCb3g9IjAgMCA0OCA0OCIgZW5hYmxlLWJhY2tncm91bmQ9Im5ldyAwIDAgNDggNDgiPiYjeGE7ICAgIDxyZWN0IHg9IjEzIiB5PSIzMCIgZmlsbD0iI0JGMzYwQyIgd2lkdGg9IjIyIiBoZWlnaHQ9IjEyIi8+JiN4YTsgICAgPGcgZmlsbD0iI0ZGQTcyNiI+JiN4YTsgICAgICAgIDxjaXJjbGUgY3g9IjEwIiBjeT0iMjYiIHI9IjQiLz4mI3hhOyAgICAgICAgPGNpcmNsZSBjeD0iMzgiIGN5PSIyNiIgcj0iNCIvPiYjeGE7ICAgIDwvZz4mI3hhOyAgICA8cGF0aCBmaWxsPSIjRkZCNzREIiBkPSJNMzksMTljMC0xMi43LTMwLTguMy0zMCwwYzAsMS44LDAsOC4yLDAsMTBjMCw4LjMsNi43LDE1LDE1LDE1czE1LTYuNywxNS0xNUMzOSwyNy4yLDM5LDIwLjgsMzksMTl6Ii8+JiN4YTsgICAgPGcgZmlsbD0iIzc4NDcxOSI+JiN4YTsgICAgICAgIDxjaXJjbGUgY3g9IjMwIiBjeT0iMjYiIHI9IjIiLz4mI3hhOyAgICAgICAgPGNpcmNsZSBjeD0iMTgiIGN5PSIyNiIgcj0iMiIvPiYjeGE7ICAgIDwvZz4mI3hhOyAgICA8cGF0aCBmaWxsPSIjRkY1NzIyIiBkPSJNMjQsMkMxNS41LDIsMyw3LjgsMywzNS42TDEzLDQyVjI0bDE2LjgtOS44TDM1LDIxdjIxbDEwLTguMmMwLTUuNi0wLjktMjktMTUuNC0yOUwyOC4yLDJIMjR6Ii8+JiN4YTsgICAgPHBhdGggZmlsbD0iIzc1NzU3NSIgZD0iTTQ1LDI0Yy0wLjYsMC0xLDAuNC0xLDF2LTdjMC04LjgtNy4yLTE2LTE2LTE2aC05Yy0wLjYsMC0xLDAuNC0xLDFzMC40LDEsMSwxaDljNy43LDAsMTQsNi4zLDE0LDE0djEwIGMwLDAuNiwwLjQsMSwxLDFzMS0wLjQsMS0xdjJjMCwzLjktMy4xLDctNyw3SDI0Yy0wLjYsMC0xLDAuNC0xLDFzMC40LDEsMSwxaDEzYzUsMCw5LTQsOS05di01QzQ2LDI0LjQsNDUuNiwyNCw0NSwyNHoiLz4mI3hhOyAgICA8ZyBmaWxsPSIjMzc0NzRGIj4mI3hhOyAgICAgICAgPHBhdGggZD0iTTQ1LDIyaC0xYy0xLjEsMC0yLDAuOS0yLDJ2NGMwLDEuMSwwLjksMiwyLDJoMWMxLjEsMCwyLTAuOSwyLTJ2LTRDNDcsMjIuOSw0Ni4xLDIyLDQ1LDIyeiIvPiYjeGE7ICAgICAgICA8Y2lyY2xlIGN4PSIyNCIgY3k9IjM4IiByPSIyIi8+JiN4YTsgICAgPC9nPiYjeGE7PC9zdmc+;labelBackgroundColor=default;" vertex="1" parent="5Y2B0rHB4n81U8_gh0Yu-38">
            <mxGeometry x="8" width="40" height="40" as="geometry" />
          </mxCell>
        </object>
        <mxCell id="5Y2B0rHB4n81U8_gh0Yu-34" value="Fluglotse" style="text;strokeColor=none;align=center;fillColor=none;html=1;verticalAlign=middle;whiteSpace=wrap;rounded=0;" vertex="1" parent="5Y2B0rHB4n81U8_gh0Yu-38">
          <mxGeometry y="30" width="60" height="30" as="geometry" />
        </mxCell>
        <mxCell id="5Y2B0rHB4n81U8_gh0Yu-39" value="" style="group" vertex="1" connectable="0" parent="1">
          <mxGeometry x="384" y="600" width="60" height="60" as="geometry" />
        </mxCell>
        <object label="" Fluglotse="" id="5Y2B0rHB4n81U8_gh0Yu-40">
          <mxCell style="shape=image;verticalLabelPosition=bottom;verticalAlign=top;imageAspect=0;aspect=fixed;image=data:image/svg+xml,PHN2ZyB4bWxucz0iaHR0cDovL3d3dy53My5vcmcvMjAwMC9zdmciIHZlcnNpb249IjEiIHZpZXdCb3g9IjAgMCA0OCA0OCIgZW5hYmxlLWJhY2tncm91bmQ9Im5ldyAwIDAgNDggNDgiPiYjeGE7ICAgIDxyZWN0IHg9IjEzIiB5PSIzMCIgZmlsbD0iI0JGMzYwQyIgd2lkdGg9IjIyIiBoZWlnaHQ9IjEyIi8+JiN4YTsgICAgPGcgZmlsbD0iI0ZGQTcyNiI+JiN4YTsgICAgICAgIDxjaXJjbGUgY3g9IjEwIiBjeT0iMjYiIHI9IjQiLz4mI3hhOyAgICAgICAgPGNpcmNsZSBjeD0iMzgiIGN5PSIyNiIgcj0iNCIvPiYjeGE7ICAgIDwvZz4mI3hhOyAgICA8cGF0aCBmaWxsPSIjRkZCNzREIiBkPSJNMzksMTljMC0xMi43LTMwLTguMy0zMCwwYzAsMS44LDAsOC4yLDAsMTBjMCw4LjMsNi43LDE1LDE1LDE1czE1LTYuNywxNS0xNUMzOSwyNy4yLDM5LDIwLjgsMzksMTl6Ii8+JiN4YTsgICAgPGcgZmlsbD0iIzc4NDcxOSI+JiN4YTsgICAgICAgIDxjaXJjbGUgY3g9IjMwIiBjeT0iMjYiIHI9IjIiLz4mI3hhOyAgICAgICAgPGNpcmNsZSBjeD0iMTgiIGN5PSIyNiIgcj0iMiIvPiYjeGE7ICAgIDwvZz4mI3hhOyAgICA8cGF0aCBmaWxsPSIjRkY1NzIyIiBkPSJNMjQsMkMxNS41LDIsMyw3LjgsMywzNS42TDEzLDQyVjI0bDE2LjgtOS44TDM1LDIxdjIxbDEwLTguMmMwLTUuNi0wLjktMjktMTUuNC0yOUwyOC4yLDJIMjR6Ii8+JiN4YTsgICAgPHBhdGggZmlsbD0iIzc1NzU3NSIgZD0iTTQ1LDI0Yy0wLjYsMC0xLDAuNC0xLDF2LTdjMC04LjgtNy4yLTE2LTE2LTE2aC05Yy0wLjYsMC0xLDAuNC0xLDFzMC40LDEsMSwxaDljNy43LDAsMTQsNi4zLDE0LDE0djEwIGMwLDAuNiwwLjQsMSwxLDFzMS0wLjQsMS0xdjJjMCwzLjktMy4xLDctNyw3SDI0Yy0wLjYsMC0xLDAuNC0xLDFzMC40LDEsMSwxaDEzYzUsMCw5LTQsOS05di01QzQ2LDI0LjQsNDUuNiwyNCw0NSwyNHoiLz4mI3hhOyAgICA8ZyBmaWxsPSIjMzc0NzRGIj4mI3hhOyAgICAgICAgPHBhdGggZD0iTTQ1LDIyaC0xYy0xLjEsMC0yLDAuOS0yLDJ2NGMwLDEuMSwwLjksMiwyLDJoMWMxLjEsMCwyLTAuOSwyLTJ2LTRDNDcsMjIuOSw0Ni4xLDIyLDQ1LDIyeiIvPiYjeGE7ICAgICAgICA8Y2lyY2xlIGN4PSIyNCIgY3k9IjM4IiByPSIyIi8+JiN4YTsgICAgPC9nPiYjeGE7PC9zdmc+;labelBackgroundColor=default;" vertex="1" parent="5Y2B0rHB4n81U8_gh0Yu-39">
            <mxGeometry x="8" width="40" height="40" as="geometry" />
          </mxCell>
        </object>
        <mxCell id="5Y2B0rHB4n81U8_gh0Yu-41" value="Fluglotse" style="text;strokeColor=none;align=center;fillColor=none;html=1;verticalAlign=middle;whiteSpace=wrap;rounded=0;" vertex="1" parent="5Y2B0rHB4n81U8_gh0Yu-39">
          <mxGeometry y="30" width="60" height="30" as="geometry" />
        </mxCell>
        <mxCell id="5Y2B0rHB4n81U8_gh0Yu-42" value="" style="group" vertex="1" connectable="0" parent="1">
          <mxGeometry x="330" y="600" width="60" height="58" as="geometry" />
        </mxCell>
        <mxCell id="5Y2B0rHB4n81U8_gh0Yu-43" value="" style="shape=image;verticalLabelPosition=bottom;verticalAlign=top;imageAspect=0;aspect=fixed;image=data:image/svg+xml,PHN2ZyB4bWxucz0iaHR0cDovL3d3dy53My5vcmcvMjAwMC9zdmciIHZlcnNpb249IjEiIHZpZXdCb3g9IjAgMCA0OCA0OCIgZW5hYmxlLWJhY2tncm91bmQ9Im5ldyAwIDAgNDggNDgiPiYjeGE7ICAgIDxnIGZpbGw9IiNGRkE3MjYiPiYjeGE7ICAgICAgICA8Y2lyY2xlIGN4PSIxMCIgY3k9IjI2IiByPSI0Ii8+JiN4YTsgICAgICAgIDxjaXJjbGUgY3g9IjM4IiBjeT0iMjYiIHI9IjQiLz4mI3hhOyAgICA8L2c+JiN4YTsgICAgPHBhdGggZmlsbD0iI0ZGQjc0RCIgZD0iTTM5LDE5YzAtMTIuNy0zMC04LjMtMzAsMGMwLDEuOCwwLDguMiwwLDEwYzAsOC4zLDYuNywxNSwxNSwxNXMxNS02LjcsMTUtMTVDMzksMjcuMiwzOSwyMC44LDM5LDE5eiIvPiYjeGE7ICAgIDxwYXRoIGZpbGw9IiNGRjU3MjIiIGQ9Ik0yNCwzQzE0LjYsMyw3LDEwLjYsNywyMGMwLDEuMiwwLDMuNCwwLDMuNEw5LDI1di0zbDIxLTkuOGw5LDkuOHYzbDItMS42YzAsMCwwLTIuMSwwLTMuNCBDNDEsMTIsMzUuMywzLDI0LDN6Ii8+JiN4YTsgICAgPGcgZmlsbD0iIzc4NDcxOSI+JiN4YTsgICAgICAgIDxjaXJjbGUgY3g9IjMxIiBjeT0iMjYiIHI9IjIiLz4mI3hhOyAgICAgICAgPGNpcmNsZSBjeD0iMTciIGN5PSIyNiIgcj0iMiIvPiYjeGE7ICAgIDwvZz4mI3hhOyAgICA8cGF0aCBmaWxsPSIjNzU3NTc1IiBkPSJNNDMsMjRjLTAuNiwwLTEsMC40LTEsMXYtN2MwLTguOC03LjItMTYtMTYtMTZoLTdjLTAuNiwwLTEsMC40LTEsMXMwLjQsMSwxLDFoN2M3LjcsMCwxNCw2LjMsMTQsMTR2MTAgYzAsMC42LDAuNCwxLDEsMXMxLTAuNCwxLTF2MmMwLDMuOS0zLjEsNy03LDdIMjRjLTAuNiwwLTEsMC40LTEsMXMwLjQsMSwxLDFoMTFjNSwwLDktNCw5LTl2LTVDNDQsMjQuNCw0My42LDI0LDQzLDI0eiIvPiYjeGE7ICAgIDxnIGZpbGw9IiMzNzQ3NEYiPiYjeGE7ICAgICAgICA8cGF0aCBkPSJNNDMsMjJoLTFjLTEuMSwwLTIsMC45LTIsMnY0YzAsMS4xLDAuOSwyLDIsMmgxYzEuMSwwLDItMC45LDItMnYtNEM0NSwyMi45LDQ0LjEsMjIsNDMsMjJ6Ii8+JiN4YTsgICAgICAgIDxjaXJjbGUgY3g9IjI0IiBjeT0iMzgiIHI9IjIiLz4mI3hhOyAgICA8L2c+JiN4YTs8L3N2Zz4=;" vertex="1" parent="5Y2B0rHB4n81U8_gh0Yu-42">
          <mxGeometry x="9" width="38" height="38" as="geometry" />
        </mxCell>
        <mxCell id="5Y2B0rHB4n81U8_gh0Yu-44" value="Fluglotse" style="text;strokeColor=none;align=center;fillColor=none;html=1;verticalAlign=middle;whiteSpace=wrap;rounded=0;" vertex="1" parent="5Y2B0rHB4n81U8_gh0Yu-42">
          <mxGeometry y="28" width="60" height="30" as="geometry" />
        </mxCell>
        <mxCell id="5Y2B0rHB4n81U8_gh0Yu-46" value="User" style="shape=image;verticalLabelPosition=bottom;verticalAlign=top;imageAspect=0;aspect=fixed;image=data:image/svg+xml,PHN2ZyB4bWxucz0iaHR0cDovL3d3dy53My5vcmcvMjAwMC9zdmciIHZlcnNpb249IjEiIHZpZXdCb3g9IjAgMCA0OCA0OCIgZW5hYmxlLWJhY2tncm91bmQ9Im5ldyAwIDAgNDggNDgiPiYjeGE7ICAgIDxwb2x5Z29uIGZpbGw9IiNGRjk4MDAiIHBvaW50cz0iMjQsMzcgMTksMzEgMTksMjUgMjksMjUgMjksMzEiLz4mI3hhOyAgICA8ZyBmaWxsPSIjRkZBNzI2Ij4mI3hhOyAgICAgICAgPGNpcmNsZSBjeD0iMzMiIGN5PSIxOSIgcj0iMiIvPiYjeGE7ICAgICAgICA8Y2lyY2xlIGN4PSIxNSIgY3k9IjE5IiByPSIyIi8+JiN4YTsgICAgPC9nPiYjeGE7ICAgIDxwYXRoIGZpbGw9IiNGRkI3NEQiIGQ9Ik0zMywxM2MwLTcuNi0xOC01LTE4LDBjMCwxLjEsMCw1LjksMCw3YzAsNSw0LDksOSw5czktNCw5LTlDMzMsMTguOSwzMywxNC4xLDMzLDEzeiIvPiYjeGE7ICAgIDxwYXRoIGZpbGw9IiM0MjQyNDIiIGQ9Ik0yNCw0Yy02LjEsMC0xMCw0LjktMTAsMTFjMCwwLjgsMCwyLjMsMCwyLjNsMiwxLjd2LTVsMTItNGw0LDR2NWwyLTEuN2MwLDAsMC0xLjUsMC0yLjNjMC00LTEtOC02LTlsLTEtMiBIMjR6Ii8+JiN4YTsgICAgPGcgZmlsbD0iIzc4NDcxOSI+JiN4YTsgICAgICAgIDxjaXJjbGUgY3g9IjI4IiBjeT0iMTkiIHI9IjEiLz4mI3hhOyAgICAgICAgPGNpcmNsZSBjeD0iMjAiIGN5PSIxOSIgcj0iMSIvPiYjeGE7ICAgIDwvZz4mI3hhOyAgICA8cG9seWdvbiBmaWxsPSIjZmZmIiBwb2ludHM9IjI0LDQzIDE5LDMxIDI0LDMyIDI5LDMxIi8+JiN4YTsgICAgPHBvbHlnb24gZmlsbD0iI0QzMkYyRiIgcG9pbnRzPSIyMywzNSAyMi4zLDM5LjUgMjQsNDMuNSAyNS43LDM5LjUgMjUsMzUgMjYsMzQgMjQsMzIgMjIsMzQiLz4mI3hhOyAgICA8cGF0aCBmaWxsPSIjNTQ2RTdBIiBkPSJNMjksMzFMMjksMzFsLTUsMTJsLTUtMTJjMCwwLTExLDItMTEsMTNoMzJDNDAsMzMsMjksMzEsMjksMzF6Ii8+JiN4YTs8L3N2Zz4=;labelBackgroundColor=#ffffff;" vertex="1" parent="1">
          <mxGeometry x="220" y="370" width="48" height="48" as="geometry" />
        </mxCell>
        <mxCell id="5Y2B0rHB4n81U8_gh0Yu-47" value="User" style="shape=image;verticalLabelPosition=bottom;verticalAlign=top;imageAspect=0;aspect=fixed;image=data:image/svg+xml,PHN2ZyB4bWxucz0iaHR0cDovL3d3dy53My5vcmcvMjAwMC9zdmciIHZlcnNpb249IjEiIHZpZXdCb3g9IjAgMCA0OCA0OCIgZW5hYmxlLWJhY2tncm91bmQ9Im5ldyAwIDAgNDggNDgiPiYjeGE7ICAgIDxwb2x5Z29uIGZpbGw9IiNGRjk4MDAiIHBvaW50cz0iMjQsMzcgMTksMzEgMTksMjUgMjksMjUgMjksMzEiLz4mI3hhOyAgICA8ZyBmaWxsPSIjRkZBNzI2Ij4mI3hhOyAgICAgICAgPGNpcmNsZSBjeD0iMzMiIGN5PSIxOSIgcj0iMiIvPiYjeGE7ICAgICAgICA8Y2lyY2xlIGN4PSIxNSIgY3k9IjE5IiByPSIyIi8+JiN4YTsgICAgPC9nPiYjeGE7ICAgIDxwYXRoIGZpbGw9IiNGRkI3NEQiIGQ9Ik0zMywxM2MwLTcuNi0xOC01LTE4LDBjMCwxLjEsMCw1LjksMCw3YzAsNSw0LDksOSw5czktNCw5LTlDMzMsMTguOSwzMywxNC4xLDMzLDEzeiIvPiYjeGE7ICAgIDxwYXRoIGZpbGw9IiM0MjQyNDIiIGQ9Ik0yNCw0Yy02LjEsMC0xMCw0LjktMTAsMTFjMCwwLjgsMCwyLjMsMCwyLjNsMiwxLjd2LTVsMTItNGw0LDR2NWwyLTEuN2MwLDAsMC0xLjUsMC0yLjNjMC00LTEtOC02LTlsLTEtMiBIMjR6Ii8+JiN4YTsgICAgPGcgZmlsbD0iIzc4NDcxOSI+JiN4YTsgICAgICAgIDxjaXJjbGUgY3g9IjI4IiBjeT0iMTkiIHI9IjEiLz4mI3hhOyAgICAgICAgPGNpcmNsZSBjeD0iMjAiIGN5PSIxOSIgcj0iMSIvPiYjeGE7ICAgIDwvZz4mI3hhOyAgICA8cG9seWdvbiBmaWxsPSIjZmZmIiBwb2ludHM9IjI0LDQzIDE5LDMxIDI0LDMyIDI5LDMxIi8+JiN4YTsgICAgPHBvbHlnb24gZmlsbD0iI0QzMkYyRiIgcG9pbnRzPSIyMywzNSAyMi4zLDM5LjUgMjQsNDMuNSAyNS43LDM5LjUgMjUsMzUgMjYsMzQgMjQsMzIgMjIsMzQiLz4mI3hhOyAgICA8cGF0aCBmaWxsPSIjNTQ2RTdBIiBkPSJNMjksMzFMMjksMzFsLTUsMTJsLTUtMTJjMCwwLTExLDItMTEsMTNoMzJDNDAsMzMsMjksMzEsMjksMzF6Ii8+JiN4YTs8L3N2Zz4=;labelBackgroundColor=#ffffff;" vertex="1" parent="1">
          <mxGeometry x="172" y="498" width="48" height="48" as="geometry" />
        </mxCell>
        <mxCell id="5Y2B0rHB4n81U8_gh0Yu-48" value="User" style="shape=image;verticalLabelPosition=bottom;verticalAlign=top;imageAspect=0;aspect=fixed;image=data:image/svg+xml,PHN2ZyB4bWxucz0iaHR0cDovL3d3dy53My5vcmcvMjAwMC9zdmciIHZlcnNpb249IjEiIHZpZXdCb3g9IjAgMCA0OCA0OCIgZW5hYmxlLWJhY2tncm91bmQ9Im5ldyAwIDAgNDggNDgiPiYjeGE7ICAgIDxwb2x5Z29uIGZpbGw9IiNGRjk4MDAiIHBvaW50cz0iMjQsMzcgMTksMzEgMTksMjUgMjksMjUgMjksMzEiLz4mI3hhOyAgICA8ZyBmaWxsPSIjRkZBNzI2Ij4mI3hhOyAgICAgICAgPGNpcmNsZSBjeD0iMzMiIGN5PSIxOSIgcj0iMiIvPiYjeGE7ICAgICAgICA8Y2lyY2xlIGN4PSIxNSIgY3k9IjE5IiByPSIyIi8+JiN4YTsgICAgPC9nPiYjeGE7ICAgIDxwYXRoIGZpbGw9IiNGRkI3NEQiIGQ9Ik0zMywxM2MwLTcuNi0xOC01LTE4LDBjMCwxLjEsMCw1LjksMCw3YzAsNSw0LDksOSw5czktNCw5LTlDMzMsMTguOSwzMywxNC4xLDMzLDEzeiIvPiYjeGE7ICAgIDxwYXRoIGZpbGw9IiM0MjQyNDIiIGQ9Ik0yNCw0Yy02LjEsMC0xMCw0LjktMTAsMTFjMCwwLjgsMCwyLjMsMCwyLjNsMiwxLjd2LTVsMTItNGw0LDR2NWwyLTEuN2MwLDAsMC0xLjUsMC0yLjNjMC00LTEtOC02LTlsLTEtMiBIMjR6Ii8+JiN4YTsgICAgPGcgZmlsbD0iIzc4NDcxOSI+JiN4YTsgICAgICAgIDxjaXJjbGUgY3g9IjI4IiBjeT0iMTkiIHI9IjEiLz4mI3hhOyAgICAgICAgPGNpcmNsZSBjeD0iMjAiIGN5PSIxOSIgcj0iMSIvPiYjeGE7ICAgIDwvZz4mI3hhOyAgICA8cG9seWdvbiBmaWxsPSIjZmZmIiBwb2ludHM9IjI0LDQzIDE5LDMxIDI0LDMyIDI5LDMxIi8+JiN4YTsgICAgPHBvbHlnb24gZmlsbD0iI0QzMkYyRiIgcG9pbnRzPSIyMywzNSAyMi4zLDM5LjUgMjQsNDMuNSAyNS43LDM5LjUgMjUsMzUgMjYsMzQgMjQsMzIgMjIsMzQiLz4mI3hhOyAgICA8cGF0aCBmaWxsPSIjNTQ2RTdBIiBkPSJNMjksMzFMMjksMzFsLTUsMTJsLTUtMTJjMCwwLTExLDItMTEsMTNoMzJDNDAsMzMsMjksMzEsMjksMzF6Ii8+JiN4YTs8L3N2Zz4=;labelBackgroundColor=#ffffff;" vertex="1" parent="1">
          <mxGeometry x="351" y="508" width="48" height="48" as="geometry" />
        </mxCell>
        <mxCell id="5Y2B0rHB4n81U8_gh0Yu-49" value="User" style="shape=image;verticalLabelPosition=bottom;verticalAlign=top;imageAspect=0;aspect=fixed;image=data:image/svg+xml,PHN2ZyB4bWxucz0iaHR0cDovL3d3dy53My5vcmcvMjAwMC9zdmciIHZlcnNpb249IjEiIHZpZXdCb3g9IjAgMCA0OCA0OCIgZW5hYmxlLWJhY2tncm91bmQ9Im5ldyAwIDAgNDggNDgiPiYjeGE7ICAgIDxwb2x5Z29uIGZpbGw9IiNGRjk4MDAiIHBvaW50cz0iMjQsMzcgMTksMzEgMTksMjUgMjksMjUgMjksMzEiLz4mI3hhOyAgICA8ZyBmaWxsPSIjRkZBNzI2Ij4mI3hhOyAgICAgICAgPGNpcmNsZSBjeD0iMzMiIGN5PSIxOSIgcj0iMiIvPiYjeGE7ICAgICAgICA8Y2lyY2xlIGN4PSIxNSIgY3k9IjE5IiByPSIyIi8+JiN4YTsgICAgPC9nPiYjeGE7ICAgIDxwYXRoIGZpbGw9IiNGRkI3NEQiIGQ9Ik0zMywxM2MwLTcuNi0xOC01LTE4LDBjMCwxLjEsMCw1LjksMCw3YzAsNSw0LDksOSw5czktNCw5LTlDMzMsMTguOSwzMywxNC4xLDMzLDEzeiIvPiYjeGE7ICAgIDxwYXRoIGZpbGw9IiM0MjQyNDIiIGQ9Ik0yNCw0Yy02LjEsMC0xMCw0LjktMTAsMTFjMCwwLjgsMCwyLjMsMCwyLjNsMiwxLjd2LTVsMTItNGw0LDR2NWwyLTEuN2MwLDAsMC0xLjUsMC0yLjNjMC00LTEtOC02LTlsLTEtMiBIMjR6Ii8+JiN4YTsgICAgPGcgZmlsbD0iIzc4NDcxOSI+JiN4YTsgICAgICAgIDxjaXJjbGUgY3g9IjI4IiBjeT0iMTkiIHI9IjEiLz4mI3hhOyAgICAgICAgPGNpcmNsZSBjeD0iMjAiIGN5PSIxOSIgcj0iMSIvPiYjeGE7ICAgIDwvZz4mI3hhOyAgICA8cG9seWdvbiBmaWxsPSIjZmZmIiBwb2ludHM9IjI0LDQzIDE5LDMxIDI0LDMyIDI5LDMxIi8+JiN4YTsgICAgPHBvbHlnb24gZmlsbD0iI0QzMkYyRiIgcG9pbnRzPSIyMywzNSAyMi4zLDM5LjUgMjQsNDMuNSAyNS43LDM5LjUgMjUsMzUgMjYsMzQgMjQsMzIgMjIsMzQiLz4mI3hhOyAgICA8cGF0aCBmaWxsPSIjNTQ2RTdBIiBkPSJNMjksMzFMMjksMzFsLTUsMTJsLTUtMTJjMCwwLTExLDItMTEsMTNoMzJDNDAsMzMsMjksMzEsMjksMzF6Ii8+JiN4YTs8L3N2Zz4=;labelBackgroundColor=#ffffff;" vertex="1" parent="1">
          <mxGeometry x="268" y="370" width="48" height="48" as="geometry" />
        </mxCell>
        <mxCell id="5Y2B0rHB4n81U8_gh0Yu-51" value="" style="group" vertex="1" connectable="0" parent="1">
          <mxGeometry x="291" y="508" width="60" height="68" as="geometry" />
        </mxCell>
        <mxCell id="5Y2B0rHB4n81U8_gh0Yu-29" value="" style="shape=image;verticalLabelPosition=bottom;verticalAlign=top;imageAspect=0;aspect=fixed;image=data:image/svg+xml,PHN2ZyB4bWxucz0iaHR0cDovL3d3dy53My5vcmcvMjAwMC9zdmciIHZlcnNpb249IjEiIHZpZXdCb3g9IjAgMCA0OCA0OCIgZW5hYmxlLWJhY2tncm91bmQ9Im5ldyAwIDAgNDggNDgiPiYjeGE7ICAgIDxyZWN0IHg9IjE2IiB5PSIxNSIgZmlsbD0iI0JGMzYwQyIgd2lkdGg9IjE2IiBoZWlnaHQ9IjE4Ii8+JiN4YTsgICAgPHBhdGggZmlsbD0iIzc4OTA5QyIgZD0iTTQwLDQ0SDhjMC0xMSwxMS0xMywxMS0xM2gxMEMyOSwzMSw0MCwzMyw0MCw0NHoiLz4mI3hhOyAgICA8cGF0aCBmaWxsPSIjRkY5ODAwIiBkPSJNMjQsMzdjLTIuMiwwLTUtNi01LTZ2LTZoMTB2NkMyOSwzMSwyNi4yLDM3LDI0LDM3eiIvPiYjeGE7ICAgIDxwYXRoIGZpbGw9IiNGRkI3NEQiIGQ9Ik0zMywxNGMwLTcuNi0xOC01LTE4LDBjMCwxLjEsMCw1LjksMCw3YzAsNSw0LDksOSw5czktNCw5LTlDMzMsMTkuOSwzMywxNS4xLDMzLDE0eiIvPiYjeGE7ICAgIDxwYXRoIGZpbGw9IiNGRjU3MjIiIGQ9Ik0yNCw0QzE3LjksNCw5LDcuNCw5LDI3LjNsNyw0LjdWMTlsMTItN2w0LDV2MTVsNy02YzAtNC0wLjctMjAtMTEtMjBsLTEtMkgyNHoiLz4mI3hhOyAgICA8cGF0aCBmaWxsPSIjRkZCNzREIiBkPSJNMjQsMzhjLTQuNCwwLTUtNy01LTdzMi41LDQsNSw0czUtNCw1LTRTMjguNCwzOCwyNCwzOHoiLz4mI3hhOyAgICA8Y2lyY2xlIGZpbGw9IiM3ODQ3MTkiIGN4PSIyOCIgY3k9IjIxIiByPSIxIi8+JiN4YTsgICAgPGNpcmNsZSBmaWxsPSIjNzg0NzE5IiBjeD0iMjAiIGN5PSIyMSIgcj0iMSIvPiYjeGE7PC9zdmc+;" vertex="1" parent="5Y2B0rHB4n81U8_gh0Yu-51">
          <mxGeometry x="6" width="48" height="48" as="geometry" />
        </mxCell>
        <mxCell id="5Y2B0rHB4n81U8_gh0Yu-45" value="User" style="text;strokeColor=none;align=center;fillColor=none;html=1;verticalAlign=middle;whiteSpace=wrap;rounded=0;" vertex="1" parent="5Y2B0rHB4n81U8_gh0Yu-51">
          <mxGeometry y="38" width="60" height="30" as="geometry" />
        </mxCell>
        <mxCell id="5Y2B0rHB4n81U8_gh0Yu-52" value="" style="group" vertex="1" connectable="0" parent="1">
          <mxGeometry x="200" y="470" width="60" height="68" as="geometry" />
        </mxCell>
        <mxCell id="5Y2B0rHB4n81U8_gh0Yu-53" value="" style="shape=image;verticalLabelPosition=bottom;verticalAlign=top;imageAspect=0;aspect=fixed;image=data:image/svg+xml,PHN2ZyB4bWxucz0iaHR0cDovL3d3dy53My5vcmcvMjAwMC9zdmciIHZlcnNpb249IjEiIHZpZXdCb3g9IjAgMCA0OCA0OCIgZW5hYmxlLWJhY2tncm91bmQ9Im5ldyAwIDAgNDggNDgiPiYjeGE7ICAgIDxyZWN0IHg9IjE2IiB5PSIxNSIgZmlsbD0iI0JGMzYwQyIgd2lkdGg9IjE2IiBoZWlnaHQ9IjE4Ii8+JiN4YTsgICAgPHBhdGggZmlsbD0iIzc4OTA5QyIgZD0iTTQwLDQ0SDhjMC0xMSwxMS0xMywxMS0xM2gxMEMyOSwzMSw0MCwzMyw0MCw0NHoiLz4mI3hhOyAgICA8cGF0aCBmaWxsPSIjRkY5ODAwIiBkPSJNMjQsMzdjLTIuMiwwLTUtNi01LTZ2LTZoMTB2NkMyOSwzMSwyNi4yLDM3LDI0LDM3eiIvPiYjeGE7ICAgIDxwYXRoIGZpbGw9IiNGRkI3NEQiIGQ9Ik0zMywxNGMwLTcuNi0xOC01LTE4LDBjMCwxLjEsMCw1LjksMCw3YzAsNSw0LDksOSw5czktNCw5LTlDMzMsMTkuOSwzMywxNS4xLDMzLDE0eiIvPiYjeGE7ICAgIDxwYXRoIGZpbGw9IiNGRjU3MjIiIGQ9Ik0yNCw0QzE3LjksNCw5LDcuNCw5LDI3LjNsNyw0LjdWMTlsMTItN2w0LDV2MTVsNy02YzAtNC0wLjctMjAtMTEtMjBsLTEtMkgyNHoiLz4mI3hhOyAgICA8cGF0aCBmaWxsPSIjRkZCNzREIiBkPSJNMjQsMzhjLTQuNCwwLTUtNy01LTdzMi41LDQsNSw0czUtNCw1LTRTMjguNCwzOCwyNCwzOHoiLz4mI3hhOyAgICA8Y2lyY2xlIGZpbGw9IiM3ODQ3MTkiIGN4PSIyOCIgY3k9IjIxIiByPSIxIi8+JiN4YTsgICAgPGNpcmNsZSBmaWxsPSIjNzg0NzE5IiBjeD0iMjAiIGN5PSIyMSIgcj0iMSIvPiYjeGE7PC9zdmc+;" vertex="1" parent="5Y2B0rHB4n81U8_gh0Yu-52">
          <mxGeometry x="6" width="48" height="48" as="geometry" />
        </mxCell>
        <mxCell id="5Y2B0rHB4n81U8_gh0Yu-54" value="User" style="text;strokeColor=none;align=center;fillColor=none;html=1;verticalAlign=middle;whiteSpace=wrap;rounded=0;" vertex="1" parent="5Y2B0rHB4n81U8_gh0Yu-52">
          <mxGeometry y="38" width="60" height="30" as="geometry" />
        </mxCell>
        <mxCell id="5Y2B0rHB4n81U8_gh0Yu-57" value="" style="endArrow=none;html=1;rounded=0;entryX=1;entryY=0.25;entryDx=0;entryDy=0;" edge="1" parent="1">
          <mxGeometry width="50" height="50" relative="1" as="geometry">
            <mxPoint x="145.5" y="460" as="sourcePoint" />
            <mxPoint x="944.5" y="462" as="targetPoint" />
          </mxGeometry>
        </mxCell>
        <mxCell id="5Y2B0rHB4n81U8_gh0Yu-63" value="" style="endArrow=none;html=1;rounded=0;entryX=1;entryY=0.25;entryDx=0;entryDy=0;" edge="1" parent="1">
          <mxGeometry width="50" height="50" relative="1" as="geometry">
            <mxPoint x="146.5" y="703" as="sourcePoint" />
            <mxPoint x="945.5" y="705" as="targetPoint" />
          </mxGeometry>
        </mxCell>
        <mxCell id="5Y2B0rHB4n81U8_gh0Yu-64" value="" style="endArrow=none;html=1;rounded=0;entryX=0.75;entryY=0;entryDx=0;entryDy=0;exitX=0.647;exitY=1.01;exitDx=0;exitDy=0;exitPerimeter=0;" edge="1" parent="1">
          <mxGeometry width="50" height="50" relative="1" as="geometry">
            <mxPoint x="517.9999999999998" y="814.0000000000002" as="sourcePoint" />
            <mxPoint x="610.7" y="591.8000000000002" as="targetPoint" />
          </mxGeometry>
        </mxCell>
        <mxCell id="5Y2B0rHB4n81U8_gh0Yu-65" value="" style="endArrow=none;html=1;rounded=0;entryX=0.75;entryY=0;entryDx=0;entryDy=0;exitX=0.647;exitY=1.01;exitDx=0;exitDy=0;exitPerimeter=0;" edge="1" parent="1">
          <mxGeometry width="50" height="50" relative="1" as="geometry">
            <mxPoint x="237.29999999999973" y="814.0000000000002" as="sourcePoint" />
            <mxPoint x="330" y="591.8000000000002" as="targetPoint" />
          </mxGeometry>
        </mxCell>
        <mxCell id="5Y2B0rHB4n81U8_gh0Yu-66" value="" style="endArrow=none;html=1;rounded=0;entryX=0.75;entryY=0;entryDx=0;entryDy=0;exitX=0.647;exitY=1.01;exitDx=0;exitDy=0;exitPerimeter=0;" edge="1" parent="1">
          <mxGeometry width="50" height="50" relative="1" as="geometry">
            <mxPoint x="259.9999999999997" y="581.1000000000003" as="sourcePoint" />
            <mxPoint x="352.7" y="358.9000000000002" as="targetPoint" />
          </mxGeometry>
        </mxCell>
        <mxCell id="5Y2B0rHB4n81U8_gh0Yu-67" value="" style="endArrow=none;html=1;rounded=0;exitX=0.647;exitY=1.01;exitDx=0;exitDy=0;exitPerimeter=0;" edge="1" parent="1">
          <mxGeometry width="50" height="50" relative="1" as="geometry">
            <mxPoint x="419.9999999999997" y="580.0000000000002" as="sourcePoint" />
            <mxPoint x="470" y="460" as="targetPoint" />
          </mxGeometry>
        </mxCell>
        <mxCell id="5Y2B0rHB4n81U8_gh0Yu-68" value="" style="endArrow=none;html=1;rounded=0;exitX=0.647;exitY=1.01;exitDx=0;exitDy=0;exitPerimeter=0;" edge="1" parent="1">
          <mxGeometry width="50" height="50" relative="1" as="geometry">
            <mxPoint x="539.9999999999998" y="460.0000000000002" as="sourcePoint" />
            <mxPoint x="580" y="360" as="targetPoint" />
          </mxGeometry>
        </mxCell>
        <mxCell id="5Y2B0rHB4n81U8_gh0Yu-69" value="" style="image;html=1;image=img/lib/clip_art/computers/Server_Rack_128x128.png" vertex="1" parent="1">
          <mxGeometry x="710" y="600" width="50" height="50" as="geometry" />
        </mxCell>
        <mxCell id="5Y2B0rHB4n81U8_gh0Yu-70" value="" style="image;html=1;image=img/lib/clip_art/computers/Server_Rack_128x128.png" vertex="1" parent="1">
          <mxGeometry x="750" y="600" width="50" height="50" as="geometry" />
        </mxCell>
        <mxCell id="5Y2B0rHB4n81U8_gh0Yu-71" value="" style="image;html=1;image=img/lib/clip_art/computers/Server_Rack_128x128.png" vertex="1" parent="1">
          <mxGeometry x="786" y="600" width="50" height="50" as="geometry" />
        </mxCell>
        <mxCell id="5Y2B0rHB4n81U8_gh0Yu-72" value="User" style="shape=image;verticalLabelPosition=bottom;verticalAlign=top;imageAspect=0;aspect=fixed;image=data:image/svg+xml,PHN2ZyB4bWxucz0iaHR0cDovL3d3dy53My5vcmcvMjAwMC9zdmciIHZlcnNpb249IjEiIHZpZXdCb3g9IjAgMCA0OCA0OCIgZW5hYmxlLWJhY2tncm91bmQ9Im5ldyAwIDAgNDggNDgiPiYjeGE7ICAgIDxwb2x5Z29uIGZpbGw9IiNGRjk4MDAiIHBvaW50cz0iMjQsMzcgMTksMzEgMTksMjUgMjksMjUgMjksMzEiLz4mI3hhOyAgICA8ZyBmaWxsPSIjRkZBNzI2Ij4mI3hhOyAgICAgICAgPGNpcmNsZSBjeD0iMzMiIGN5PSIxOSIgcj0iMiIvPiYjeGE7ICAgICAgICA8Y2lyY2xlIGN4PSIxNSIgY3k9IjE5IiByPSIyIi8+JiN4YTsgICAgPC9nPiYjeGE7ICAgIDxwYXRoIGZpbGw9IiNGRkI3NEQiIGQ9Ik0zMywxM2MwLTcuNi0xOC01LTE4LDBjMCwxLjEsMCw1LjksMCw3YzAsNSw0LDksOSw5czktNCw5LTlDMzMsMTguOSwzMywxNC4xLDMzLDEzeiIvPiYjeGE7ICAgIDxwYXRoIGZpbGw9IiM0MjQyNDIiIGQ9Ik0yNCw0Yy02LjEsMC0xMCw0LjktMTAsMTFjMCwwLjgsMCwyLjMsMCwyLjNsMiwxLjd2LTVsMTItNGw0LDR2NWwyLTEuN2MwLDAsMC0xLjUsMC0yLjNjMC00LTEtOC02LTlsLTEtMiBIMjR6Ii8+JiN4YTsgICAgPGcgZmlsbD0iIzc4NDcxOSI+JiN4YTsgICAgICAgIDxjaXJjbGUgY3g9IjI4IiBjeT0iMTkiIHI9IjEiLz4mI3hhOyAgICAgICAgPGNpcmNsZSBjeD0iMjAiIGN5PSIxOSIgcj0iMSIvPiYjeGE7ICAgIDwvZz4mI3hhOyAgICA8cG9seWdvbiBmaWxsPSIjZmZmIiBwb2ludHM9IjI0LDQzIDE5LDMxIDI0LDMyIDI5LDMxIi8+JiN4YTsgICAgPHBvbHlnb24gZmlsbD0iI0QzMkYyRiIgcG9pbnRzPSIyMywzNSAyMi4zLDM5LjUgMjQsNDMuNSAyNS43LDM5LjUgMjUsMzUgMjYsMzQgMjQsMzIgMjIsMzQiLz4mI3hhOyAgICA8cGF0aCBmaWxsPSIjNTQ2RTdBIiBkPSJNMjksMzFMMjksMzFsLTUsMTJsLTUtMTJjMCwwLTExLDItMTEsMTNoMzJDNDAsMzMsMjksMzEsMjksMzF6Ii8+JiN4YTs8L3N2Zz4=;labelBackgroundColor=#ffffff;" vertex="1" parent="1">
          <mxGeometry x="156" y="730" width="48" height="48" as="geometry" />
        </mxCell>
        <mxCell id="5Y2B0rHB4n81U8_gh0Yu-73" value="User" style="shape=image;verticalLabelPosition=bottom;verticalAlign=top;imageAspect=0;aspect=fixed;image=data:image/svg+xml,PHN2ZyB4bWxucz0iaHR0cDovL3d3dy53My5vcmcvMjAwMC9zdmciIHZlcnNpb249IjEiIHZpZXdCb3g9IjAgMCA0OCA0OCIgZW5hYmxlLWJhY2tncm91bmQ9Im5ldyAwIDAgNDggNDgiPiYjeGE7ICAgIDxwb2x5Z29uIGZpbGw9IiNGRjk4MDAiIHBvaW50cz0iMjQsMzcgMTksMzEgMTksMjUgMjksMjUgMjksMzEiLz4mI3hhOyAgICA8ZyBmaWxsPSIjRkZBNzI2Ij4mI3hhOyAgICAgICAgPGNpcmNsZSBjeD0iMzMiIGN5PSIxOSIgcj0iMiIvPiYjeGE7ICAgICAgICA8Y2lyY2xlIGN4PSIxNSIgY3k9IjE5IiByPSIyIi8+JiN4YTsgICAgPC9nPiYjeGE7ICAgIDxwYXRoIGZpbGw9IiNGRkI3NEQiIGQ9Ik0zMywxM2MwLTcuNi0xOC01LTE4LDBjMCwxLjEsMCw1LjksMCw3YzAsNSw0LDksOSw5czktNCw5LTlDMzMsMTguOSwzMywxNC4xLDMzLDEzeiIvPiYjeGE7ICAgIDxwYXRoIGZpbGw9IiM0MjQyNDIiIGQ9Ik0yNCw0Yy02LjEsMC0xMCw0LjktMTAsMTFjMCwwLjgsMCwyLjMsMCwyLjNsMiwxLjd2LTVsMTItNGw0LDR2NWwyLTEuN2MwLDAsMC0xLjUsMC0yLjNjMC00LTEtOC02LTlsLTEtMiBIMjR6Ii8+JiN4YTsgICAgPGcgZmlsbD0iIzc4NDcxOSI+JiN4YTsgICAgICAgIDxjaXJjbGUgY3g9IjI4IiBjeT0iMTkiIHI9IjEiLz4mI3hhOyAgICAgICAgPGNpcmNsZSBjeD0iMjAiIGN5PSIxOSIgcj0iMSIvPiYjeGE7ICAgIDwvZz4mI3hhOyAgICA8cG9seWdvbiBmaWxsPSIjZmZmIiBwb2ludHM9IjI0LDQzIDE5LDMxIDI0LDMyIDI5LDMxIi8+JiN4YTsgICAgPHBvbHlnb24gZmlsbD0iI0QzMkYyRiIgcG9pbnRzPSIyMywzNSAyMi4zLDM5LjUgMjQsNDMuNSAyNS43LDM5LjUgMjUsMzUgMjYsMzQgMjQsMzIgMjIsMzQiLz4mI3hhOyAgICA8cGF0aCBmaWxsPSIjNTQ2RTdBIiBkPSJNMjksMzFMMjksMzFsLTUsMTJsLTUtMTJjMCwwLTExLDItMTEsMTNoMzJDNDAsMzMsMjksMzEsMjksMzF6Ii8+JiN4YTs8L3N2Zz4=;labelBackgroundColor=#ffffff;" vertex="1" parent="1">
          <mxGeometry x="282" y="730" width="48" height="48" as="geometry" />
        </mxCell>
        <mxCell id="5Y2B0rHB4n81U8_gh0Yu-74" value="User" style="shape=image;verticalLabelPosition=bottom;verticalAlign=top;imageAspect=0;aspect=fixed;image=data:image/svg+xml,PHN2ZyB4bWxucz0iaHR0cDovL3d3dy53My5vcmcvMjAwMC9zdmciIHZlcnNpb249IjEiIHZpZXdCb3g9IjAgMCA0OCA0OCIgZW5hYmxlLWJhY2tncm91bmQ9Im5ldyAwIDAgNDggNDgiPiYjeGE7ICAgIDxwb2x5Z29uIGZpbGw9IiNGRjk4MDAiIHBvaW50cz0iMjQsMzcgMTksMzEgMTksMjUgMjksMjUgMjksMzEiLz4mI3hhOyAgICA8ZyBmaWxsPSIjRkZBNzI2Ij4mI3hhOyAgICAgICAgPGNpcmNsZSBjeD0iMzMiIGN5PSIxOSIgcj0iMiIvPiYjeGE7ICAgICAgICA8Y2lyY2xlIGN4PSIxNSIgY3k9IjE5IiByPSIyIi8+JiN4YTsgICAgPC9nPiYjeGE7ICAgIDxwYXRoIGZpbGw9IiNGRkI3NEQiIGQ9Ik0zMywxM2MwLTcuNi0xOC01LTE4LDBjMCwxLjEsMCw1LjksMCw3YzAsNSw0LDksOSw5czktNCw5LTlDMzMsMTguOSwzMywxNC4xLDMzLDEzeiIvPiYjeGE7ICAgIDxwYXRoIGZpbGw9IiM0MjQyNDIiIGQ9Ik0yNCw0Yy02LjEsMC0xMCw0LjktMTAsMTFjMCwwLjgsMCwyLjMsMCwyLjNsMiwxLjd2LTVsMTItNGw0LDR2NWwyLTEuN2MwLDAsMC0xLjUsMC0yLjNjMC00LTEtOC02LTlsLTEtMiBIMjR6Ii8+JiN4YTsgICAgPGcgZmlsbD0iIzc4NDcxOSI+JiN4YTsgICAgICAgIDxjaXJjbGUgY3g9IjI4IiBjeT0iMTkiIHI9IjEiLz4mI3hhOyAgICAgICAgPGNpcmNsZSBjeD0iMjAiIGN5PSIxOSIgcj0iMSIvPiYjeGE7ICAgIDwvZz4mI3hhOyAgICA8cG9seWdvbiBmaWxsPSIjZmZmIiBwb2ludHM9IjI0LDQzIDE5LDMxIDI0LDMyIDI5LDMxIi8+JiN4YTsgICAgPHBvbHlnb24gZmlsbD0iI0QzMkYyRiIgcG9pbnRzPSIyMywzNSAyMi4zLDM5LjUgMjQsNDMuNSAyNS43LDM5LjUgMjUsMzUgMjYsMzQgMjQsMzIgMjIsMzQiLz4mI3hhOyAgICA8cGF0aCBmaWxsPSIjNTQ2RTdBIiBkPSJNMjksMzFMMjksMzFsLTUsMTJsLTUtMTJjMCwwLTExLDItMTEsMTNoMzJDNDAsMzMsMjksMzEsMjksMzF6Ii8+JiN4YTs8L3N2Zz4=;labelBackgroundColor=#ffffff;" vertex="1" parent="1">
          <mxGeometry x="342" y="730" width="48" height="48" as="geometry" />
        </mxCell>
        <mxCell id="5Y2B0rHB4n81U8_gh0Yu-75" value="User" style="shape=image;verticalLabelPosition=bottom;verticalAlign=top;imageAspect=0;aspect=fixed;image=data:image/svg+xml,PHN2ZyB4bWxucz0iaHR0cDovL3d3dy53My5vcmcvMjAwMC9zdmciIHZlcnNpb249IjEiIHZpZXdCb3g9IjAgMCA0OCA0OCIgZW5hYmxlLWJhY2tncm91bmQ9Im5ldyAwIDAgNDggNDgiPiYjeGE7ICAgIDxwb2x5Z29uIGZpbGw9IiNGRjk4MDAiIHBvaW50cz0iMjQsMzcgMTksMzEgMTksMjUgMjksMjUgMjksMzEiLz4mI3hhOyAgICA8ZyBmaWxsPSIjRkZBNzI2Ij4mI3hhOyAgICAgICAgPGNpcmNsZSBjeD0iMzMiIGN5PSIxOSIgcj0iMiIvPiYjeGE7ICAgICAgICA8Y2lyY2xlIGN4PSIxNSIgY3k9IjE5IiByPSIyIi8+JiN4YTsgICAgPC9nPiYjeGE7ICAgIDxwYXRoIGZpbGw9IiNGRkI3NEQiIGQ9Ik0zMywxM2MwLTcuNi0xOC01LTE4LDBjMCwxLjEsMCw1LjksMCw3YzAsNSw0LDksOSw5czktNCw5LTlDMzMsMTguOSwzMywxNC4xLDMzLDEzeiIvPiYjeGE7ICAgIDxwYXRoIGZpbGw9IiM0MjQyNDIiIGQ9Ik0yNCw0Yy02LjEsMC0xMCw0LjktMTAsMTFjMCwwLjgsMCwyLjMsMCwyLjNsMiwxLjd2LTVsMTItNGw0LDR2NWwyLTEuN2MwLDAsMC0xLjUsMC0yLjNjMC00LTEtOC02LTlsLTEtMiBIMjR6Ii8+JiN4YTsgICAgPGcgZmlsbD0iIzc4NDcxOSI+JiN4YTsgICAgICAgIDxjaXJjbGUgY3g9IjI4IiBjeT0iMTkiIHI9IjEiLz4mI3hhOyAgICAgICAgPGNpcmNsZSBjeD0iMjAiIGN5PSIxOSIgcj0iMSIvPiYjeGE7ICAgIDwvZz4mI3hhOyAgICA8cG9seWdvbiBmaWxsPSIjZmZmIiBwb2ludHM9IjI0LDQzIDE5LDMxIDI0LDMyIDI5LDMxIi8+JiN4YTsgICAgPHBvbHlnb24gZmlsbD0iI0QzMkYyRiIgcG9pbnRzPSIyMywzNSAyMi4zLDM5LjUgMjQsNDMuNSAyNS43LDM5LjUgMjUsMzUgMjYsMzQgMjQsMzIgMjIsMzQiLz4mI3hhOyAgICA8cGF0aCBmaWxsPSIjNTQ2RTdBIiBkPSJNMjksMzFMMjksMzFsLTUsMTJsLTUtMTJjMCwwLTExLDItMTEsMTNoMzJDNDAsMzMsMjksMzEsMjksMzF6Ii8+JiN4YTs8L3N2Zz4=;labelBackgroundColor=#ffffff;" vertex="1" parent="1">
          <mxGeometry x="400" y="730" width="48" height="48" as="geometry" />
        </mxCell>
        <mxCell id="5Y2B0rHB4n81U8_gh0Yu-76" value="User" style="shape=image;verticalLabelPosition=bottom;verticalAlign=top;imageAspect=0;aspect=fixed;image=data:image/svg+xml,PHN2ZyB4bWxucz0iaHR0cDovL3d3dy53My5vcmcvMjAwMC9zdmciIHZlcnNpb249IjEiIHZpZXdCb3g9IjAgMCA0OCA0OCIgZW5hYmxlLWJhY2tncm91bmQ9Im5ldyAwIDAgNDggNDgiPiYjeGE7ICAgIDxwb2x5Z29uIGZpbGw9IiNGRjk4MDAiIHBvaW50cz0iMjQsMzcgMTksMzEgMTksMjUgMjksMjUgMjksMzEiLz4mI3hhOyAgICA8ZyBmaWxsPSIjRkZBNzI2Ij4mI3hhOyAgICAgICAgPGNpcmNsZSBjeD0iMzMiIGN5PSIxOSIgcj0iMiIvPiYjeGE7ICAgICAgICA8Y2lyY2xlIGN4PSIxNSIgY3k9IjE5IiByPSIyIi8+JiN4YTsgICAgPC9nPiYjeGE7ICAgIDxwYXRoIGZpbGw9IiNGRkI3NEQiIGQ9Ik0zMywxM2MwLTcuNi0xOC01LTE4LDBjMCwxLjEsMCw1LjksMCw3YzAsNSw0LDksOSw5czktNCw5LTlDMzMsMTguOSwzMywxNC4xLDMzLDEzeiIvPiYjeGE7ICAgIDxwYXRoIGZpbGw9IiM0MjQyNDIiIGQ9Ik0yNCw0Yy02LjEsMC0xMCw0LjktMTAsMTFjMCwwLjgsMCwyLjMsMCwyLjNsMiwxLjd2LTVsMTItNGw0LDR2NWwyLTEuN2MwLDAsMC0xLjUsMC0yLjNjMC00LTEtOC02LTlsLTEtMiBIMjR6Ii8+JiN4YTsgICAgPGcgZmlsbD0iIzc4NDcxOSI+JiN4YTsgICAgICAgIDxjaXJjbGUgY3g9IjI4IiBjeT0iMTkiIHI9IjEiLz4mI3hhOyAgICAgICAgPGNpcmNsZSBjeD0iMjAiIGN5PSIxOSIgcj0iMSIvPiYjeGE7ICAgIDwvZz4mI3hhOyAgICA8cG9seWdvbiBmaWxsPSIjZmZmIiBwb2ludHM9IjI0LDQzIDE5LDMxIDI0LDMyIDI5LDMxIi8+JiN4YTsgICAgPHBvbHlnb24gZmlsbD0iI0QzMkYyRiIgcG9pbnRzPSIyMywzNSAyMi4zLDM5LjUgMjQsNDMuNSAyNS43LDM5LjUgMjUsMzUgMjYsMzQgMjQsMzIgMjIsMzQiLz4mI3hhOyAgICA8cGF0aCBmaWxsPSIjNTQ2RTdBIiBkPSJNMjksMzFMMjksMzFsLTUsMTJsLTUtMTJjMCwwLTExLDItMTEsMTNoMzJDNDAsMzMsMjksMzEsMjksMzF6Ii8+JiN4YTs8L3N2Zz4=;labelBackgroundColor=#ffffff;" vertex="1" parent="1">
          <mxGeometry x="460" y="730" width="48" height="48" as="geometry" />
        </mxCell>
        <mxCell id="5Y2B0rHB4n81U8_gh0Yu-77" value="" style="endArrow=none;html=1;rounded=0;exitX=0.647;exitY=1.01;exitDx=0;exitDy=0;exitPerimeter=0;" edge="1" parent="1">
          <mxGeometry width="50" height="50" relative="1" as="geometry">
            <mxPoint x="719.9999999999998" y="460.0000000000002" as="sourcePoint" />
            <mxPoint x="760" y="360" as="targetPoint" />
          </mxGeometry>
        </mxCell>
        <mxCell id="5Y2B0rHB4n81U8_gh0Yu-80" value="" style="image;html=1;image=img/lib/clip_art/computers/Server_Rack_128x128.png" vertex="1" parent="1">
          <mxGeometry x="820" y="600" width="50" height="50" as="geometry" />
        </mxCell>
        <mxCell id="5Y2B0rHB4n81U8_gh0Yu-81" value="" style="image;html=1;image=img/lib/clip_art/computers/Server_Rack_128x128.png" vertex="1" parent="1">
          <mxGeometry x="710" y="650" width="50" height="50" as="geometry" />
        </mxCell>
        <mxCell id="5Y2B0rHB4n81U8_gh0Yu-82" value="" style="image;html=1;image=img/lib/clip_art/computers/Server_Rack_128x128.png" vertex="1" parent="1">
          <mxGeometry x="750" y="650" width="50" height="50" as="geometry" />
        </mxCell>
        <mxCell id="5Y2B0rHB4n81U8_gh0Yu-83" value="" style="image;html=1;image=img/lib/clip_art/computers/Server_Rack_128x128.png" vertex="1" parent="1">
          <mxGeometry x="786" y="650" width="50" height="50" as="geometry" />
        </mxCell>
        <mxCell id="5Y2B0rHB4n81U8_gh0Yu-84" value="" style="image;html=1;image=img/lib/clip_art/computers/Server_Rack_128x128.png" vertex="1" parent="1">
          <mxGeometry x="820" y="650" width="50" height="50" as="geometry" />
        </mxCell>
        <mxCell id="5Y2B0rHB4n81U8_gh0Yu-85" value="" style="endArrow=none;html=1;rounded=0;entryX=0;entryY=1;entryDx=0;entryDy=0;exitX=0.5;exitY=0;exitDx=0;exitDy=0;" edge="1" parent="1" source="5Y2B0rHB4n81U8_gh0Yu-71" target="5Y2B0rHB4n81U8_gh0Yu-34">
          <mxGeometry width="50" height="50" relative="1" as="geometry">
            <mxPoint x="690" y="510" as="sourcePoint" />
            <mxPoint x="740" y="460" as="targetPoint" />
          </mxGeometry>
        </mxCell>
        <mxCell id="5Y2B0rHB4n81U8_gh0Yu-86" value="" style="endArrow=none;html=1;rounded=0;entryX=0;entryY=1;entryDx=0;entryDy=0;exitX=0.5;exitY=0;exitDx=0;exitDy=0;" edge="1" parent="1">
          <mxGeometry width="50" height="50" relative="1" as="geometry">
            <mxPoint x="849" y="600" as="sourcePoint" />
            <mxPoint x="870" y="88" as="targetPoint" />
          </mxGeometry>
        </mxCell>
        <mxCell id="5Y2B0rHB4n81U8_gh0Yu-87" value="" style="endArrow=none;html=1;rounded=0;entryX=1;entryY=0;entryDx=0;entryDy=0;" edge="1" parent="1" source="5Y2B0rHB4n81U8_gh0Yu-69" target="5Y2B0rHB4n81U8_gh0Yu-41">
          <mxGeometry width="50" height="50" relative="1" as="geometry">
            <mxPoint x="821" y="610" as="sourcePoint" />
            <mxPoint x="842" y="98" as="targetPoint" />
          </mxGeometry>
        </mxCell>
        <mxCell id="5Y2B0rHB4n81U8_gh0Yu-88" value="" style="endArrow=none;html=1;rounded=0;entryX=1;entryY=0;entryDx=0;entryDy=0;" edge="1" parent="1">
          <mxGeometry width="50" height="50" relative="1" as="geometry">
            <mxPoint x="710" y="672.5" as="sourcePoint" />
            <mxPoint x="444" y="677.5" as="targetPoint" />
          </mxGeometry>
        </mxCell>
        <mxCell id="5Y2B0rHB4n81U8_gh0Yu-89" value="" style="group" vertex="1" connectable="0" parent="1">
          <mxGeometry x="370" y="370" width="60" height="68" as="geometry" />
        </mxCell>
        <mxCell id="5Y2B0rHB4n81U8_gh0Yu-90" value="" style="shape=image;verticalLabelPosition=bottom;verticalAlign=top;imageAspect=0;aspect=fixed;image=data:image/svg+xml,PHN2ZyB4bWxucz0iaHR0cDovL3d3dy53My5vcmcvMjAwMC9zdmciIHZlcnNpb249IjEiIHZpZXdCb3g9IjAgMCA0OCA0OCIgZW5hYmxlLWJhY2tncm91bmQ9Im5ldyAwIDAgNDggNDgiPiYjeGE7ICAgIDxyZWN0IHg9IjE2IiB5PSIxNSIgZmlsbD0iI0JGMzYwQyIgd2lkdGg9IjE2IiBoZWlnaHQ9IjE4Ii8+JiN4YTsgICAgPHBhdGggZmlsbD0iIzc4OTA5QyIgZD0iTTQwLDQ0SDhjMC0xMSwxMS0xMywxMS0xM2gxMEMyOSwzMSw0MCwzMyw0MCw0NHoiLz4mI3hhOyAgICA8cGF0aCBmaWxsPSIjRkY5ODAwIiBkPSJNMjQsMzdjLTIuMiwwLTUtNi01LTZ2LTZoMTB2NkMyOSwzMSwyNi4yLDM3LDI0LDM3eiIvPiYjeGE7ICAgIDxwYXRoIGZpbGw9IiNGRkI3NEQiIGQ9Ik0zMywxNGMwLTcuNi0xOC01LTE4LDBjMCwxLjEsMCw1LjksMCw3YzAsNSw0LDksOSw5czktNCw5LTlDMzMsMTkuOSwzMywxNS4xLDMzLDE0eiIvPiYjeGE7ICAgIDxwYXRoIGZpbGw9IiNGRjU3MjIiIGQ9Ik0yNCw0QzE3LjksNCw5LDcuNCw5LDI3LjNsNyw0LjdWMTlsMTItN2w0LDV2MTVsNy02YzAtNC0wLjctMjAtMTEtMjBsLTEtMkgyNHoiLz4mI3hhOyAgICA8cGF0aCBmaWxsPSIjRkZCNzREIiBkPSJNMjQsMzhjLTQuNCwwLTUtNy01LTdzMi41LDQsNSw0czUtNCw1LTRTMjguNCwzOCwyNCwzOHoiLz4mI3hhOyAgICA8Y2lyY2xlIGZpbGw9IiM3ODQ3MTkiIGN4PSIyOCIgY3k9IjIxIiByPSIxIi8+JiN4YTsgICAgPGNpcmNsZSBmaWxsPSIjNzg0NzE5IiBjeD0iMjAiIGN5PSIyMSIgcj0iMSIvPiYjeGE7PC9zdmc+;" vertex="1" parent="5Y2B0rHB4n81U8_gh0Yu-89">
          <mxGeometry x="6" width="48" height="48" as="geometry" />
        </mxCell>
        <mxCell id="5Y2B0rHB4n81U8_gh0Yu-91" value="User" style="text;strokeColor=none;align=center;fillColor=none;html=1;verticalAlign=middle;whiteSpace=wrap;rounded=0;" vertex="1" parent="5Y2B0rHB4n81U8_gh0Yu-89">
          <mxGeometry y="38" width="60" height="30" as="geometry" />
        </mxCell>
        <mxCell id="5Y2B0rHB4n81U8_gh0Yu-92" value="" style="group" vertex="1" connectable="0" parent="1">
          <mxGeometry x="430" y="370" width="60" height="68" as="geometry" />
        </mxCell>
        <mxCell id="5Y2B0rHB4n81U8_gh0Yu-93" value="" style="shape=image;verticalLabelPosition=bottom;verticalAlign=top;imageAspect=0;aspect=fixed;image=data:image/svg+xml,PHN2ZyB4bWxucz0iaHR0cDovL3d3dy53My5vcmcvMjAwMC9zdmciIHZlcnNpb249IjEiIHZpZXdCb3g9IjAgMCA0OCA0OCIgZW5hYmxlLWJhY2tncm91bmQ9Im5ldyAwIDAgNDggNDgiPiYjeGE7ICAgIDxyZWN0IHg9IjE2IiB5PSIxNSIgZmlsbD0iI0JGMzYwQyIgd2lkdGg9IjE2IiBoZWlnaHQ9IjE4Ii8+JiN4YTsgICAgPHBhdGggZmlsbD0iIzc4OTA5QyIgZD0iTTQwLDQ0SDhjMC0xMSwxMS0xMywxMS0xM2gxMEMyOSwzMSw0MCwzMyw0MCw0NHoiLz4mI3hhOyAgICA8cGF0aCBmaWxsPSIjRkY5ODAwIiBkPSJNMjQsMzdjLTIuMiwwLTUtNi01LTZ2LTZoMTB2NkMyOSwzMSwyNi4yLDM3LDI0LDM3eiIvPiYjeGE7ICAgIDxwYXRoIGZpbGw9IiNGRkI3NEQiIGQ9Ik0zMywxNGMwLTcuNi0xOC01LTE4LDBjMCwxLjEsMCw1LjksMCw3YzAsNSw0LDksOSw5czktNCw5LTlDMzMsMTkuOSwzMywxNS4xLDMzLDE0eiIvPiYjeGE7ICAgIDxwYXRoIGZpbGw9IiNGRjU3MjIiIGQ9Ik0yNCw0QzE3LjksNCw5LDcuNCw5LDI3LjNsNyw0LjdWMTlsMTItN2w0LDV2MTVsNy02YzAtNC0wLjctMjAtMTEtMjBsLTEtMkgyNHoiLz4mI3hhOyAgICA8cGF0aCBmaWxsPSIjRkZCNzREIiBkPSJNMjQsMzhjLTQuNCwwLTUtNy01LTdzMi41LDQsNSw0czUtNCw1LTRTMjguNCwzOCwyNCwzOHoiLz4mI3hhOyAgICA8Y2lyY2xlIGZpbGw9IiM3ODQ3MTkiIGN4PSIyOCIgY3k9IjIxIiByPSIxIi8+JiN4YTsgICAgPGNpcmNsZSBmaWxsPSIjNzg0NzE5IiBjeD0iMjAiIGN5PSIyMSIgcj0iMSIvPiYjeGE7PC9zdmc+;" vertex="1" parent="5Y2B0rHB4n81U8_gh0Yu-92">
          <mxGeometry x="6" width="48" height="48" as="geometry" />
        </mxCell>
        <mxCell id="5Y2B0rHB4n81U8_gh0Yu-94" value="User" style="text;strokeColor=none;align=center;fillColor=none;html=1;verticalAlign=middle;whiteSpace=wrap;rounded=0;" vertex="1" parent="5Y2B0rHB4n81U8_gh0Yu-92">
          <mxGeometry y="38" width="60" height="30" as="geometry" />
        </mxCell>
      </root>
    </mxGraphModel>
  </diagram>
</mxfile>
